<?xml version="1.0" encoding="UTF-8"?>
<!DOCTYPE svg PUBLIC "-//W3C//DTD SVG 1.1//EN" "http://www.w3.org/Graphics/SVG/1.1/DTD/svg11.dtd">
<svg xmlns="http://www.w3.org/2000/svg" version="1.1" width="1750px" height="1592px" style="shape-rendering:geometricPrecision; text-rendering:geometricPrecision; image-rendering:optimizeQuality; fill-rule:evenodd; clip-rule:evenodd" xmlns:xlink="http://www.w3.org/1999/xlink">
<g><path style="opacity:0.992" fill="#fdfdfd" d="M 1271.5,94.5 C 1271.5,96.8333 1271.5,99.1667 1271.5,101.5C 1273.17,106.889 1276.5,108.556 1281.5,106.5C 1282.86,108.836 1284.19,111.17 1285.5,113.5C 1286.5,113.5 1287.5,113.5 1288.5,113.5C 1289.99,117.812 1291.99,121.812 1294.5,125.5C 1292.5,125.5 1291.5,126.5 1291.5,128.5C 1290.01,129.312 1289.34,130.645 1289.5,132.5C 1289.44,134.557 1290.1,136.223 1291.5,137.5C 1292.17,138.167 1292.83,138.833 1293.5,139.5C 1294.07,144.443 1296.07,145.443 1299.5,142.5C 1300.43,143.568 1300.77,144.901 1300.5,146.5C 1301.5,146.5 1302.5,146.5 1303.5,146.5C 1304,149.772 1305,152.105 1306.5,153.5C 1301.81,157.862 1301.31,162.862 1305,168.5C 1305.71,169.381 1306.54,170.047 1307.5,170.5C 1308.61,172.847 1310.27,173.18 1312.5,171.5C 1312.82,173.048 1313.82,173.715 1315.5,173.5C 1316.51,176.507 1317.51,179.507 1318.5,182.5C 1314.84,190.027 1316.17,196.527 1322.5,202C 1324.13,202.494 1325.8,202.66 1327.5,202.5C 1327.5,203.833 1327.5,205.167 1327.5,206.5C 1328.5,206.5 1329.5,206.5 1330.5,206.5C 1330.5,208.5 1330.5,210.5 1330.5,212.5C 1331.5,212.5 1332.5,212.5 1333.5,212.5C 1333.5,214.5 1333.5,216.5 1333.5,218.5C 1334.5,218.5 1335.5,218.5 1336.5,218.5C 1336.5,220.5 1336.5,222.5 1336.5,224.5C 1337.5,224.5 1338.5,224.5 1339.5,224.5C 1339.5,226.5 1339.5,228.5 1339.5,230.5C 1340.5,230.5 1341.5,230.5 1342.5,230.5C 1342.2,232.604 1342.53,234.604 1343.5,236.5C 1345.35,241.203 1347.51,245.869 1350,250.5C 1350.33,250.167 1350.67,249.833 1351,249.5C 1353.49,256.199 1355.65,262.865 1357.5,269.5C 1358.5,269.5 1359.5,269.5 1360.5,269.5C 1361.59,275.188 1361.59,280.854 1360.5,286.5C 1359.5,286.5 1358.5,286.5 1357.5,286.5C 1357.5,287.5 1357.5,288.5 1357.5,289.5C 1356.5,289.5 1355.5,289.5 1354.5,289.5C 1354.21,288.351 1353.38,287.684 1352,287.5C 1351.17,287.667 1350.33,287.833 1349.5,288C 1346.71,289.535 1344.71,291.702 1343.5,294.5C 1342.25,294.577 1341.42,295.244 1341,296.5C 1340.51,298.134 1340.34,299.801 1340.5,301.5C 1323.94,318.427 1306.61,334.427 1288.5,349.5C 1288.5,350.5 1288.5,351.5 1288.5,352.5C 1287.5,352.5 1286.5,352.5 1285.5,352.5C 1285.5,353.5 1285.5,354.5 1285.5,355.5C 1283.24,356.139 1281.24,357.306 1279.5,359C 1276.95,361.929 1274.28,364.762 1271.5,367.5C 1261.29,373.885 1250.96,379.885 1240.5,385.5C 1240.67,392.841 1240.5,400.174 1240,407.5C 1239.67,407.167 1239.33,406.833 1239,406.5C 1238.67,407.833 1238.33,409.167 1238,410.5C 1237.5,423.496 1237.33,436.496 1237.5,449.5C 1236.18,449.33 1235.01,449.663 1234,450.5C 1233.2,453.367 1233.37,456.034 1234.5,458.5C 1235.05,460.626 1235.71,462.626 1236.5,464.5C 1237.12,469.411 1239.78,472.411 1244.5,473.5C 1245.12,473.389 1245.62,473.056 1246,472.5C 1246.5,474.81 1246.66,477.143 1246.5,479.5C 1247.5,479.5 1248.5,479.5 1249.5,479.5C 1249.34,482.187 1249.5,484.854 1250,487.5C 1250.41,487.957 1250.91,488.291 1251.5,488.5C 1252.33,491.5 1253.17,494.5 1254,497.5C 1254.33,497.167 1254.67,496.833 1255,496.5C 1255.33,498.833 1255.67,501.167 1256,503.5C 1257.97,509.887 1260.47,515.887 1263.5,521.5C 1263.97,526.835 1265.3,531.835 1267.5,536.5C 1268.68,536.281 1269.68,536.614 1270.5,537.5C 1274.17,541.167 1277.83,544.833 1281.5,548.5C 1282.39,549.325 1282.72,550.325 1282.5,551.5C 1283.5,551.5 1284.5,551.5 1285.5,551.5C 1285.5,552.5 1285.5,553.5 1285.5,554.5C 1286.5,554.5 1287.5,554.5 1288.5,554.5C 1288.29,556.179 1288.95,557.179 1290.5,557.5C 1290.5,559.5 1290.5,561.5 1290.5,563.5C 1286.9,564.62 1283.23,565.787 1279.5,567C 1277.96,568.11 1277.3,569.61 1277.5,571.5C 1273.6,574.016 1269.27,575.016 1264.5,574.5C 1266.69,583.298 1267.69,592.298 1267.5,601.5C 1255.43,601.964 1243.43,603.131 1231.5,605C 1231.84,607.916 1231.01,610.749 1229,613.5C 1228.5,616.482 1228.34,619.482 1228.5,622.5C 1227.5,622.5 1226.5,622.5 1225.5,622.5C 1225.82,626.555 1225.49,630.555 1224.5,634.5C 1223.91,634.709 1223.41,635.043 1223,635.5C 1222.12,643.652 1220.79,651.652 1219,659.5C 1218.31,660.025 1217.81,660.692 1217.5,661.5C 1258.62,691.247 1300.29,720.247 1342.5,748.5C 1343.11,751.076 1344.27,753.409 1346,755.5C 1346.67,756.833 1347.33,756.833 1348,755.5C 1348.49,756.793 1348.66,758.127 1348.5,759.5C 1344.9,761.693 1343.9,764.693 1345.5,768.5C 1346.11,771.697 1348.11,773.031 1351.5,772.5C 1352.21,773.404 1353.21,773.737 1354.5,773.5C 1354.5,775.5 1354.5,777.5 1354.5,779.5C 1355.5,779.5 1356.5,779.5 1357.5,779.5C 1357.73,781.433 1358.56,783.1 1360,784.5C 1367.41,791.55 1375.58,797.716 1384.5,803C 1403.83,817.669 1422.83,832.669 1441.5,848C 1443.5,849 1445.5,850 1447.5,851C 1467.47,866.993 1487.47,882.993 1507.5,899C 1508.45,899.483 1509.45,899.649 1510.5,899.5C 1510.5,900.5 1510.5,901.5 1510.5,902.5C 1512.58,903.044 1514.58,903.878 1516.5,905C 1538.9,923.186 1561.24,941.352 1583.5,959.5C 1582.75,966.221 1583.92,972.554 1587,978.5C 1587.67,979.252 1588.5,979.586 1589.5,979.5C 1589.14,984.484 1590.81,985.484 1594.5,982.5C 1598.69,993.341 1602.69,1004.34 1606.5,1015.5C 1607.65,1019.63 1608.65,1023.79 1609.5,1028C 1607.79,1035.31 1604.96,1042.14 1601,1048.5C 1600.5,1050.47 1600.34,1052.47 1600.5,1054.5C 1599.5,1054.5 1598.5,1054.5 1597.5,1054.5C 1597.66,1056.2 1597.49,1057.87 1597,1059.5C 1594.09,1062.99 1591.42,1066.66 1589,1070.5C 1588.3,1073.82 1587.14,1076.82 1585.5,1079.5C 1587.22,1083.73 1589.22,1087.73 1591.5,1091.5C 1592.5,1091.5 1593.5,1091.5 1594.5,1091.5C 1594.42,1092.93 1594.75,1094.26 1595.5,1095.5C 1600.53,1102.03 1605.36,1108.69 1610,1115.5C 1611.12,1117.42 1611.96,1119.42 1612.5,1121.5C 1613.5,1121.5 1614.5,1121.5 1615.5,1121.5C 1616.51,1124.51 1617.51,1127.51 1618.5,1130.5C 1619.5,1130.5 1620.5,1130.5 1621.5,1130.5C 1623.91,1134.26 1625.91,1138.26 1627.5,1142.5C 1628.5,1142.5 1629.5,1142.5 1630.5,1142.5C 1630.42,1143.93 1630.75,1145.26 1631.5,1146.5C 1636,1151.66 1639.66,1157.32 1642.5,1163.5C 1643.5,1163.5 1644.5,1163.5 1645.5,1163.5C 1645.95,1166.46 1647.12,1169.13 1649,1171.5C 1653.19,1176.09 1657.02,1180.92 1660.5,1186C 1662.2,1188.23 1663.2,1190.73 1663.5,1193.5C 1664.5,1193.5 1665.5,1193.5 1666.5,1193.5C 1668.21,1197.72 1670.21,1201.72 1672.5,1205.5C 1673.5,1205.5 1674.5,1205.5 1675.5,1205.5C 1675.42,1206.93 1675.75,1208.26 1676.5,1209.5C 1680.42,1215.02 1684.09,1220.69 1687.5,1226.5C 1688.5,1226.5 1689.5,1226.5 1690.5,1226.5C 1691.97,1231.73 1694.8,1236.06 1699,1239.5C 1700.01,1242.31 1701.18,1244.98 1702.5,1247.5C 1703.5,1247.5 1704.5,1247.5 1705.5,1247.5C 1706.97,1252.73 1709.8,1257.06 1714,1260.5C 1715.29,1263.17 1716.46,1265.83 1717.5,1268.5C 1718.5,1268.5 1719.5,1268.5 1720.5,1268.5C 1720.36,1270.26 1720.69,1271.93 1721.5,1273.5C 1726.45,1278.09 1730.12,1283.42 1732.5,1289.5C 1733.5,1289.5 1734.5,1289.5 1735.5,1289.5C 1735.49,1291.31 1735.99,1292.98 1737,1294.5C 1740.43,1297.97 1743.09,1301.97 1745,1306.5C 1746.47,1307.99 1747.97,1309.32 1749.5,1310.5C 1749.5,1314.5 1749.5,1318.5 1749.5,1322.5C 1702.71,1351.63 1656.37,1381.29 1610.5,1411.5C 1544,1453.5 1478.17,1496.5 1413,1540.5C 1408.26,1543.1 1403.26,1545.1 1398,1546.5C 1325.53,1556.54 1253.03,1566.88 1180.5,1577.5C 1163.5,1578.83 1146.5,1578.83 1129.5,1577.5C 1031.26,1547.23 933.258,1516.23 835.5,1484.5C 835.739,1482.53 835.406,1480.7 834.5,1479C 831.49,1478.16 828.49,1477.33 825.5,1476.5C 823.97,1476.64 822.97,1477.31 822.5,1478.5C 820.5,1478.5 819.5,1479.5 819.5,1481.5C 788.104,1472.21 757.104,1461.87 726.5,1450.5C 726.657,1449.13 726.49,1447.79 726,1446.5C 721.741,1442.95 716.907,1441.78 711.5,1443C 709.963,1444.11 709.297,1445.61 709.5,1447.5C 702.217,1445.27 694.884,1442.94 687.5,1440.5C 681.491,1437.83 675.491,1435.17 669.5,1432.5C 669.5,1429.17 667.833,1427.5 664.5,1427.5C 664.179,1425.95 663.179,1425.29 661.5,1425.5C 660.209,1425.74 659.209,1425.4 658.5,1424.5C 657.713,1422.9 656.38,1422.23 654.5,1422.5C 651.696,1421.36 648.696,1421.2 645.5,1422C 644.62,1423.36 644.286,1424.86 644.5,1426.5C 635.022,1423.04 625.022,1419.87 614.5,1417C 608.349,1413.59 602.016,1410.75 595.5,1408.5C 595.337,1404.21 593.004,1401.88 588.5,1401.5C 586.372,1400.37 584.039,1400.2 581.5,1401C 579.963,1402.11 579.297,1403.61 579.5,1405.5C 574.98,1404.09 570.313,1402.93 565.5,1402C 553.781,1397.32 542.114,1392.49 530.5,1387.5C 531.084,1384.71 530.084,1383.05 527.5,1382.5C 526.833,1382.5 526.167,1382.5 525.5,1382.5C 522.316,1380.59 518.649,1379.92 514.5,1380.5C 514.5,1381.83 514.5,1383.17 514.5,1384.5C 496.698,1378.85 478.698,1373.68 460.5,1369C 423.527,1356.75 386.527,1344.09 349.5,1331C 347.167,1330.67 344.833,1330.33 342.5,1330C 320.327,1322.44 298.327,1314.61 276.5,1306.5C 276.843,1304.52 276.176,1303.18 274.5,1302.5C 273.5,1301.83 272.5,1301.17 271.5,1300.5C 268.713,1299.52 265.713,1299.19 262.5,1299.5C 262.5,1300.83 262.5,1302.17 262.5,1303.5C 256.787,1302.63 251.121,1301.47 245.5,1300C 177.315,1276.57 108.982,1253.73 40.5,1231.5C 39.6814,1227.15 37.348,1223.65 33.5,1221C 31.8659,1220.51 30.1992,1220.34 28.5,1220.5C 28.5,1219.5 28.5,1218.5 28.5,1217.5C 29.9587,1217.57 31.2921,1217.23 32.5,1216.5C 33.5676,1217.43 34.901,1217.77 36.5,1217.5C 38.7271,1216.6 39.7271,1214.93 39.5,1212.5C 39.5,1212.17 39.5,1211.83 39.5,1211.5C 40.6291,1209.37 40.7958,1207.04 40,1204.5C 39.3292,1203.75 38.4959,1203.41 37.5,1203.5C 36.8285,1200.01 37.8285,1197.35 40.5,1195.5C 41.1667,1195.5 41.5,1195.83 41.5,1196.5C 41.4701,1197.5 41.9701,1198.16 43,1198.5C 44.7491,1198.25 45.5824,1197.25 45.5,1195.5C 46.9931,1194.69 47.6598,1193.35 47.5,1191.5C 46.6568,1188.13 45.3235,1185.13 43.5,1182.5C 44.9525,1181.15 45.9525,1179.48 46.5,1177.5C 49.3646,1177.95 51.8646,1177.28 54,1175.5C 54.6667,1172.5 54.6667,1169.5 54,1166.5C 52.8904,1164.96 51.3904,1164.3 49.5,1164.5C 50.172,1163.73 51.0053,1163.07 52,1162.5C 55.9834,1153.24 59.8168,1144.24 63.5,1135.5C 67.8345,1135.28 69.1678,1133.28 67.5,1129.5C 67.1788,1127.95 66.1788,1127.29 64.5,1127.5C 59.6322,1122.9 53.9655,1119.56 47.5,1117.5C 45.7354,1116.54 43.7354,1116.21 41.5,1116.5C 41.5,1118.17 41.5,1119.83 41.5,1121.5C 30.4841,1116.66 19.8174,1111.33 9.5,1105.5C 8.07297,1096.42 6.23963,1087.42 4,1078.5C 2.58453,1074.25 1.08453,1070.25 -0.5,1066.5C -0.5,1063.17 -0.5,1059.83 -0.5,1056.5C 2.91032,1056.62 4.24365,1054.95 3.5,1051.5C 6.90057,1047.43 8.90057,1042.77 9.5,1037.5C 21.4194,1029.31 33.4194,1021.31 45.5,1013.5C 55.6615,1007.12 65.9949,1001.12 76.5,995.5C 76.5,994.5 76.5,993.5 76.5,992.5C 77.5,992.5 78.5,992.5 79.5,992.5C 79.5,991.5 79.5,990.5 79.5,989.5C 80.5,989.5 81.5,989.5 82.5,989.5C 82.5,988.5 82.5,987.5 82.5,986.5C 83.5,986.5 84.5,986.5 85.5,986.5C 85.5,985.5 85.5,984.5 85.5,983.5C 86.5,983.5 87.5,983.5 88.5,983.5C 88.5,982.5 88.5,981.5 88.5,980.5C 89.5,980.5 90.5,980.5 91.5,980.5C 91.5,979.5 91.5,978.5 91.5,977.5C 92.5,977.5 93.5,977.5 94.5,977.5C 94.5,976.5 94.5,975.5 94.5,974.5C 95.5,974.5 96.5,974.5 97.5,974.5C 97.5,973.5 97.5,972.5 97.5,971.5C 98.5,971.5 99.5,971.5 100.5,971.5C 100.5,970.5 100.5,969.5 100.5,968.5C 101.5,968.5 102.5,968.5 103.5,968.5C 103.5,967.5 103.5,966.5 103.5,965.5C 104.5,965.5 105.5,965.5 106.5,965.5C 106.5,964.5 106.5,963.5 106.5,962.5C 107.5,962.5 108.5,962.5 109.5,962.5C 109.5,961.5 109.5,960.5 109.5,959.5C 110.5,959.5 111.5,959.5 112.5,959.5C 112.5,958.5 112.5,957.5 112.5,956.5C 113.5,956.5 114.5,956.5 115.5,956.5C 115.5,955.5 115.5,954.5 115.5,953.5C 116.5,953.5 117.5,953.5 118.5,953.5C 118.5,952.5 118.5,951.5 118.5,950.5C 119.5,950.5 120.5,950.5 121.5,950.5C 121.5,949.5 121.5,948.5 121.5,947.5C 122.5,947.5 123.5,947.5 124.5,947.5C 124.5,946.5 124.5,945.5 124.5,944.5C 125.5,944.5 126.5,944.5 127.5,944.5C 127.5,943.5 127.5,942.5 127.5,941.5C 128.5,941.5 129.5,941.5 130.5,941.5C 130.5,940.5 130.5,939.5 130.5,938.5C 131.5,938.5 132.5,938.5 133.5,938.5C 133.5,937.5 133.5,936.5 133.5,935.5C 134.5,935.5 135.5,935.5 136.5,935.5C 136.5,934.5 136.5,933.5 136.5,932.5C 137.5,932.5 138.5,932.5 139.5,932.5C 139.5,931.5 139.5,930.5 139.5,929.5C 140.5,929.5 141.5,929.5 142.5,929.5C 142.5,928.5 142.5,927.5 142.5,926.5C 143.5,926.5 144.5,926.5 145.5,926.5C 145.5,925.5 145.5,924.5 145.5,923.5C 146.5,923.5 147.5,923.5 148.5,923.5C 148.5,922.5 148.5,921.5 148.5,920.5C 149.5,920.5 150.5,920.5 151.5,920.5C 151.5,919.5 151.5,918.5 151.5,917.5C 152.5,917.5 153.5,917.5 154.5,917.5C 154.5,916.5 154.5,915.5 154.5,914.5C 155.5,914.5 156.5,914.5 157.5,914.5C 157.5,913.5 157.5,912.5 157.5,911.5C 158.5,911.5 159.5,911.5 160.5,911.5C 160.5,910.5 160.5,909.5 160.5,908.5C 161.5,908.5 162.5,908.5 163.5,908.5C 163.5,907.5 163.5,906.5 163.5,905.5C 164.5,905.5 165.5,905.5 166.5,905.5C 166.5,904.5 166.5,903.5 166.5,902.5C 167.5,902.5 168.5,902.5 169.5,902.5C 169.5,901.5 169.5,900.5 169.5,899.5C 171.76,898.861 173.76,897.694 175.5,896C 197.212,873.957 219.212,852.124 241.5,830.5C 241.5,831.167 241.5,831.833 241.5,832.5C 241.47,833.497 241.97,834.164 243,834.5C 246.048,833.999 248.548,832.666 250.5,830.5C 252.529,828.142 254.529,825.808 256.5,823.5C 258.207,822.127 259.54,820.461 260.5,818.5C 261.833,817.833 262.833,816.833 263.5,815.5C 275.161,805.505 286.161,794.838 296.5,783.5C 299.053,781.403 301.386,779.07 303.5,776.5C 306.29,774.72 308.29,772.387 309.5,769.5C 310.675,769.719 311.675,769.386 312.5,768.5C 334.456,746.22 356.623,724.22 379,702.5C 387.957,692.376 397.457,682.709 407.5,673.5C 408.386,672.675 408.719,671.675 408.5,670.5C 409.675,670.719 410.675,670.386 411.5,669.5C 417.423,663.768 423.09,657.768 428.5,651.5C 431.719,648.736 434.719,645.736 437.5,642.5C 443.233,637.77 448.233,632.436 452.5,626.5C 454.5,624.833 456.5,623.167 458.5,621.5C 460.587,620.415 461.92,618.749 462.5,616.5C 463.496,616.586 464.329,616.252 465,615.5C 465.497,613.19 465.663,610.857 465.5,608.5C 467.413,606.88 468.747,604.88 469.5,602.5C 470.5,602.5 471.5,602.5 472.5,602.5C 472.5,601.5 472.5,600.5 472.5,599.5C 473.5,599.5 474.5,599.5 475.5,599.5C 475.5,598.5 475.5,597.5 475.5,596.5C 476.5,596.5 477.5,596.5 478.5,596.5C 478.5,595.5 478.5,594.5 478.5,593.5C 479.5,593.5 480.5,593.5 481.5,593.5C 481.281,592.325 481.614,591.325 482.5,590.5C 483.695,588.703 485.362,587.703 487.5,587.5C 487.5,586.5 487.5,585.5 487.5,584.5C 510.375,576.582 533.375,568.915 556.5,561.5C 561.55,560.717 566.55,559.717 571.5,558.5C 590.825,557.495 610.158,556.662 629.5,556C 631.116,554.923 632.949,554.423 635,554.5C 640.627,556.18 646.46,556.847 652.5,556.5C 652.667,535.831 652.5,515.164 652,494.5C 650.294,493.692 649.461,492.359 649.5,490.5C 648.5,490.5 647.5,490.5 646.5,490.5C 645.063,488.04 644.063,485.374 643.5,482.5C 642.5,482.5 641.5,482.5 640.5,482.5C 640.5,481.167 640.5,479.833 640.5,478.5C 639.5,478.5 638.5,478.5 637.5,478.5C 635.466,474.433 633.466,470.433 631.5,466.5C 630.5,466.5 629.5,466.5 628.5,466.5C 626.5,462.5 624.5,458.5 622.5,454.5C 621.5,454.5 620.5,454.5 619.5,454.5C 619.657,453.127 619.49,451.793 619,450.5C 617.354,449.221 616.187,447.555 615.5,445.5C 609.479,439.479 603.479,433.479 597.5,427.5C 597.652,423.117 595.985,419.617 592.5,417C 589.144,416.128 586.144,414.628 583.5,412.5C 583.209,411.351 582.376,410.684 581,410.5C 578.244,410.424 577.077,411.757 577.5,414.5C 572.719,412.42 568.385,409.754 564.5,406.5C 564.664,403.813 564.497,401.146 564,398.5C 563.329,397.748 562.496,397.414 561.5,397.5C 557.673,395.659 554.006,393.326 550.5,390.5C 548.085,390.719 547.085,392.052 547.5,394.5C 542.023,391.235 536.357,388.069 530.5,385C 523.925,379.978 517.258,375.145 510.5,370.5C 511.424,366.116 510.091,362.782 506.5,360.5C 504.914,359.852 503.247,359.352 501.5,359C 499.254,356.391 496.587,354.557 493.5,353.5C 493.306,351.088 491.973,350.088 489.5,350.5C 488.448,348.744 486.781,348.077 484.5,348.5C 484.5,349.833 484.5,351.167 484.5,352.5C 480.238,350.163 475.905,347.996 471.5,346C 468.062,343.602 464.729,341.102 461.5,338.5C 460.606,331.355 459.939,324.189 459.5,317C 459.91,304.933 461.243,293.099 463.5,281.5C 464.5,281.5 465.5,281.5 466.5,281.5C 466.5,278.5 466.5,275.5 466.5,272.5C 467.5,272.5 468.5,272.5 469.5,272.5C 469.5,271.167 469.5,269.833 469.5,268.5C 472.652,269.041 475.152,268.041 477,265.5C 480.308,259.353 481.808,252.687 481.5,245.5C 491.515,238.583 502.182,232.583 513.5,227.5C 513.5,229.167 513.5,230.833 513.5,232.5C 516.187,232.664 518.854,232.497 521.5,232C 522.942,231.623 523.942,230.79 524.5,229.5C 526.25,228.13 528.25,227.13 530.5,226.5C 534.888,225.109 536.888,222.109 536.5,217.5C 538.367,215.716 540.034,213.716 541.5,211.5C 544.74,213.191 546.74,212.191 547.5,208.5C 547.5,208.167 547.5,207.833 547.5,207.5C 549.083,206.064 550.583,204.398 552,202.5C 552.483,201.552 552.649,200.552 552.5,199.5C 556.119,196.583 557.119,192.916 555.5,188.5C 554.15,187.05 552.484,186.383 550.5,186.5C 551.209,185.596 552.209,185.263 553.5,185.5C 553.5,183.5 553.5,181.5 553.5,179.5C 554.5,179.5 555.5,179.5 556.5,179.5C 556.5,177.5 556.5,175.5 556.5,173.5C 557.5,173.5 558.5,173.5 559.5,173.5C 560.24,169.359 561.24,165.359 562.5,161.5C 563.5,161.5 564.5,161.5 565.5,161.5C 566.392,157.392 568.559,154.059 572,151.5C 572.333,151.833 572.667,152.167 573,152.5C 573.908,150.561 575.408,149.561 577.5,149.5C 577.5,148.5 577.5,147.5 577.5,146.5C 578.552,146.649 579.552,146.483 580.5,146C 583.14,142.694 586.14,139.694 589.5,137C 598.295,130.377 606.961,123.544 615.5,116.5C 616.736,115.754 618.07,115.421 619.5,115.5C 619.5,114.5 619.5,113.5 619.5,112.5C 657.939,103.211 696.939,97.3772 736.5,95C 743.739,87.0502 751.405,79.5502 759.5,72.5C 787.169,71.7288 814.836,70.8954 842.5,70C 847.657,68.7172 852.99,68.0505 858.5,68C 861.217,66.1802 863.717,64.0135 866,61.5C 866.333,61.8333 866.667,62.1667 867,62.5C 869.509,60.3331 872.009,58.1665 874.5,56C 886.285,50.2746 897.618,43.7746 908.5,36.5C 912.252,35.1034 915.919,33.6034 919.5,32C 920.047,31.0754 920.713,30.2421 921.5,29.5C 924.401,28.2172 927.401,27.2172 930.5,26.5C 950.553,31.9758 970.387,37.9758 990,44.5C 1016.89,36.7716 1043.39,27.9382 1069.5,18C 1088.61,15.7446 1107.61,13.4113 1126.5,11C 1128.21,7.79669 1130.87,5.96336 1134.5,5.5C 1147.77,3.31875 1161.1,2.98541 1174.5,4.5C 1180.38,8.88277 1186.38,13.0494 1192.5,17C 1196.86,19.0668 1201.19,21.2335 1205.5,23.5C 1209.12,26.4097 1212.78,29.2431 1216.5,32C 1222.73,35.0005 1228.73,38.1672 1234.5,41.5C 1234.5,42.5 1234.5,43.5 1234.5,44.5C 1235.5,44.5 1236.5,44.5 1237.5,44.5C 1237.5,45.5 1237.5,46.5 1237.5,47.5C 1238.5,47.5 1239.5,47.5 1240.5,47.5C 1241.94,49.9598 1242.94,52.6265 1243.5,55.5C 1244.5,55.5 1245.5,55.5 1246.5,55.5C 1247.2,57.9948 1248.2,60.3281 1249.5,62.5C 1250.5,62.5 1251.5,62.5 1252.5,62.5C 1253.51,65.507 1254.51,68.507 1255.5,71.5C 1256.5,71.5 1257.5,71.5 1258.5,71.5C 1260.32,75.6364 1262.32,79.6364 1264.5,83.5C 1265.5,83.5 1266.5,83.5 1267.5,83.5C 1267.5,85.5 1267.5,87.5 1267.5,89.5C 1268.5,89.5 1269.5,89.5 1270.5,89.5C 1270.63,91.2161 1270.96,92.8828 1271.5,94.5 Z"/></g>
<g><path style="opacity:0.264" fill="#dad5d1" d="M 1272.5,94.5 C 1274.36,96.7053 1276.7,98.0387 1279.5,98.5C 1279.5,100.5 1279.5,102.5 1279.5,104.5C 1277.31,104.296 1275.31,103.63 1273.5,102.5C 1272.73,99.9039 1272.4,97.2372 1272.5,94.5 Z"/></g>
<g><path style="opacity:0.969" fill="#e8e5e4" d="M 1271.5,94.5 C 1271.83,94.5 1272.17,94.5 1272.5,94.5C 1272.4,97.2372 1272.73,99.9039 1273.5,102.5C 1272.83,102.167 1272.17,101.833 1271.5,101.5C 1271.5,99.1667 1271.5,96.8333 1271.5,94.5 Z"/></g>
<g><path style="opacity:0.761" fill="#e3e1dd" d="M 1273.5,102.5 C 1275.31,103.63 1277.31,104.296 1279.5,104.5C 1280.5,104.833 1281.17,105.5 1281.5,106.5C 1277.74,107.226 1275.07,105.893 1273.5,102.5 Z"/></g>
<g><path style="opacity:0.969" fill="#f2f1ef" d="M 1271.5,101.5 C 1272.17,101.833 1272.83,102.167 1273.5,102.5C 1275.07,105.893 1277.74,107.226 1281.5,106.5C 1276.5,108.556 1273.17,106.889 1271.5,101.5 Z"/></g>
<g><path style="opacity:0.498" fill="#f4f3f3" d="M 1294.5,125.5 C 1294.5,125.833 1294.5,126.167 1294.5,126.5C 1293.5,127.167 1292.5,127.833 1291.5,128.5C 1291.5,126.5 1292.5,125.5 1294.5,125.5 Z"/></g>
<g><path style="opacity:0.92" fill="#f6f4f4" d="M 1291.5,128.5 C 1291.5,131.5 1291.5,134.5 1291.5,137.5C 1290.1,136.223 1289.44,134.557 1289.5,132.5C 1289.34,130.645 1290.01,129.312 1291.5,128.5 Z"/></g>
<g><path style="opacity:0.12" fill="#d9d4d3" d="M 1294.5,128.5 C 1294.5,129.5 1294.5,130.5 1294.5,131.5C 1295.5,131.5 1296.5,131.5 1297.5,131.5C 1297.5,134.5 1297.5,137.5 1297.5,140.5C 1296.61,139.89 1295.61,139.557 1294.5,139.5C 1293.29,135.699 1293.29,132.033 1294.5,128.5 Z"/></g>
<g><path style="opacity:0.514" fill="#e5e2e1" d="M 1294.5,126.5 C 1294.5,127.167 1294.5,127.833 1294.5,128.5C 1293.29,132.033 1293.29,135.699 1294.5,139.5C 1294.17,139.5 1293.83,139.5 1293.5,139.5C 1292.83,138.833 1292.17,138.167 1291.5,137.5C 1291.5,134.5 1291.5,131.5 1291.5,128.5C 1292.5,127.833 1293.5,127.167 1294.5,126.5 Z"/></g>
<g><path style="opacity:0.098" fill="#e1dcdb" d="M 1294.5,139.5 C 1295.61,139.557 1296.61,139.89 1297.5,140.5C 1298.34,140.842 1298.67,141.508 1298.5,142.5C 1296.38,142.532 1295.05,141.532 1294.5,139.5 Z"/></g>
<g><path style="opacity:0.765" fill="#f2f0f0" d="M 1293.5,139.5 C 1293.83,139.5 1294.17,139.5 1294.5,139.5C 1295.05,141.532 1296.38,142.532 1298.5,142.5C 1298.83,142.5 1299.17,142.5 1299.5,142.5C 1296.07,145.443 1294.07,144.443 1293.5,139.5 Z"/></g>
<g><path style="opacity:0.295" fill="#dfdcdd" d="M 1306.5,155.5 C 1307.83,156.507 1308.83,157.84 1309.5,159.5C 1310.71,162.465 1311.71,165.465 1312.5,168.5C 1311.18,169.942 1309.51,170.608 1307.5,170.5C 1306.83,168.5 1306.17,166.5 1305.5,164.5C 1305.7,161.482 1306.04,158.482 1306.5,155.5 Z"/></g>
<g><path style="opacity:0.972" fill="#f3f2f2" d="M 1306.5,153.5 C 1306.5,153.833 1306.5,154.167 1306.5,154.5C 1304.47,157.708 1304.14,161.041 1305.5,164.5C 1306.17,166.5 1306.83,168.5 1307.5,170.5C 1306.54,170.047 1305.71,169.381 1305,168.5C 1301.31,162.862 1301.81,157.862 1306.5,153.5 Z"/></g>
<g><path style="opacity:0.879" fill="#e8e6e6" d="M 1306.5,154.5 C 1306.5,154.833 1306.5,155.167 1306.5,155.5C 1306.04,158.482 1305.7,161.482 1305.5,164.5C 1304.14,161.041 1304.47,157.708 1306.5,154.5 Z"/></g>
<g><path style="opacity:0.731" fill="#f2f0f1" d="M 1312.5,168.5 C 1312.5,169.5 1312.5,170.5 1312.5,171.5C 1310.27,173.18 1308.61,172.847 1307.5,170.5C 1309.51,170.608 1311.18,169.942 1312.5,168.5 Z"/></g>
<g><path style="opacity:0.558" fill="#dedcdd" d="M 1319.5,183.5 C 1321.26,184.552 1321.92,186.219 1321.5,188.5C 1322.5,188.5 1323.5,188.5 1324.5,188.5C 1324.5,192.5 1324.5,196.5 1324.5,200.5C 1322.25,199.92 1320.58,198.587 1319.5,196.5C 1318.54,193.098 1318.54,189.765 1319.5,186.5C 1319.5,185.5 1319.5,184.5 1319.5,183.5 Z"/></g>
<g><path style="opacity:0.346" fill="#e5e4df" d="M 550.5,187.5 C 553.776,188.122 555.109,190.122 554.5,193.5C 552.058,195.121 550.725,197.454 550.5,200.5C 549.242,202.687 548.242,205.02 547.5,207.5C 547.5,207.833 547.5,208.167 547.5,208.5C 545.926,208.937 544.759,209.937 544,211.5C 543.329,210.748 542.496,210.414 541.5,210.5C 541.338,208.473 541.505,206.473 542,204.5C 542.333,204.833 542.667,205.167 543,205.5C 544.982,199.152 547.482,193.152 550.5,187.5 Z"/></g>
<g><path style="opacity:0.898" fill="#e8e7e7" d="M 1319.5,186.5 C 1318.54,189.765 1318.54,193.098 1319.5,196.5C 1318.16,194.651 1317.5,192.484 1317.5,190C 1317.61,188.319 1318.27,187.152 1319.5,186.5 Z"/></g>
<g><path style="opacity:1" fill="#f3f3f1" d="M 550.5,187.5 C 550.5,187.167 550.5,186.833 550.5,186.5C 552.484,186.383 554.15,187.05 555.5,188.5C 557.119,192.916 556.119,196.583 552.5,199.5C 552.704,197.315 553.37,195.315 554.5,193.5C 555.109,190.122 553.776,188.122 550.5,187.5 Z"/></g>
<g><path style="opacity:0.996" fill="#ecebe6" d="M 554.5,193.5 C 553.37,195.315 552.704,197.315 552.5,199.5C 551.833,199.833 551.167,200.167 550.5,200.5C 550.725,197.454 552.058,195.121 554.5,193.5 Z"/></g>
<g><path style="opacity:0.957" fill="#f3f2f2" d="M 1318.5,182.5 C 1319.17,182.5 1319.5,182.833 1319.5,183.5C 1319.5,184.5 1319.5,185.5 1319.5,186.5C 1318.27,187.152 1317.61,188.319 1317.5,190C 1317.5,192.484 1318.16,194.651 1319.5,196.5C 1320.58,198.587 1322.25,199.92 1324.5,200.5C 1326.18,200.285 1327.18,200.952 1327.5,202.5C 1325.8,202.66 1324.13,202.494 1322.5,202C 1316.17,196.527 1314.84,190.027 1318.5,182.5 Z"/></g>
<g><path style="opacity:1" fill="#f3f3f0" d="M 552.5,199.5 C 552.649,200.552 552.483,201.552 552,202.5C 550.583,204.398 549.083,206.064 547.5,207.5C 548.242,205.02 549.242,202.687 550.5,200.5C 551.167,200.167 551.833,199.833 552.5,199.5 Z"/></g>
<g><path style="opacity:0.58" fill="#f1f0ed" d="M 547.5,208.5 C 546.74,212.191 544.74,213.191 541.5,211.5C 541.5,211.167 541.5,210.833 541.5,210.5C 542.496,210.414 543.329,210.748 544,211.5C 544.759,209.937 545.926,208.937 547.5,208.5 Z"/></g>
<g><path style="opacity:0.559" fill="#f6f6f4" d="M 536.5,217.5 C 536.888,222.109 534.888,225.109 530.5,226.5C 531.167,225.5 531.833,224.5 532.5,223.5C 534.727,222.599 535.727,220.933 535.5,218.5C 535.5,217.833 535.833,217.5 536.5,217.5 Z"/></g>
<g><path style="opacity:0.366" fill="#e3e3df" d="M 533.5,220.5 C 532.89,221.391 532.557,222.391 532.5,223.5C 528.575,224.579 525.242,226.579 522.5,229.5C 521.609,230.11 520.609,230.443 519.5,230.5C 518.167,230.5 516.833,230.5 515.5,230.5C 515.5,229.167 515.5,227.833 515.5,226.5C 520.888,222.979 526.888,220.979 533.5,220.5 Z"/></g>
<g><path style="opacity:0.376" fill="#ecece9" d="M 535.5,218.5 C 535.727,220.933 534.727,222.599 532.5,223.5C 532.557,222.391 532.89,221.391 533.5,220.5C 534.167,219.833 534.833,219.167 535.5,218.5 Z"/></g>
<g><path style="opacity:0.301" fill="#ebebe8" d="M 515.5,226.5 C 515.5,227.833 515.5,229.167 515.5,230.5C 516.833,230.5 518.167,230.5 519.5,230.5C 518.081,231.451 516.415,231.784 514.5,231.5C 514.5,230.167 514.5,228.833 514.5,227.5C 514.5,226.833 514.833,226.5 515.5,226.5 Z"/></g>
<g><path style="opacity:0.984" fill="#ededeb" d="M 532.5,223.5 C 531.833,224.5 531.167,225.5 530.5,226.5C 528.25,227.13 526.25,228.13 524.5,229.5C 523.833,229.5 523.167,229.5 522.5,229.5C 525.242,226.579 528.575,224.579 532.5,223.5 Z"/></g>
<g><path style="opacity:0.967" fill="#f3f3f2" d="M 513.5,227.5 C 513.833,227.5 514.167,227.5 514.5,227.5C 514.5,228.833 514.5,230.167 514.5,231.5C 516.415,231.784 518.081,231.451 519.5,230.5C 520.609,230.443 521.609,230.11 522.5,229.5C 523.167,229.5 523.833,229.5 524.5,229.5C 523.942,230.79 522.942,231.623 521.5,232C 518.854,232.497 516.187,232.664 513.5,232.5C 513.5,230.833 513.5,229.167 513.5,227.5 Z"/></g>
<g><path style="opacity:0.247" fill="#e6e5db" d="M 479.5,245.5 C 479.494,250.215 478.994,254.882 478,259.5C 475.798,261.845 474.298,264.511 473.5,267.5C 472.167,267.5 470.833,267.5 469.5,267.5C 469.34,265.801 469.506,264.134 470,262.5C 470.333,262.833 470.667,263.167 471,263.5C 472.211,258.372 473.711,253.372 475.5,248.5C 476.5,248.5 477.5,248.5 478.5,248.5C 478.263,247.209 478.596,246.209 479.5,245.5 Z"/></g>
<g><path style="opacity:0.984" fill="#f4f3ef" d="M 479.5,245.5 C 480.167,245.5 480.833,245.5 481.5,245.5C 481.808,252.687 480.308,259.353 477,265.5C 475.152,268.041 472.652,269.041 469.5,268.5C 469.5,268.167 469.5,267.833 469.5,267.5C 470.833,267.5 472.167,267.5 473.5,267.5C 474.298,264.511 475.798,261.845 478,259.5C 478.994,254.882 479.494,250.215 479.5,245.5 Z"/></g>
<g><path style="opacity:0.071" fill="#e8e7e6" d="M 1352.5,289.5 C 1351.5,290.5 1350.5,291.5 1349.5,292.5C 1349.5,291.5 1349.5,290.5 1349.5,289.5C 1350.5,289.5 1351.5,289.5 1352.5,289.5 Z"/></g>
<g><path style="opacity:0.213" fill="#f2f1f0" d="M 1354.5,289.5 C 1353.83,289.5 1353.17,289.5 1352.5,289.5C 1351.5,289.5 1350.5,289.5 1349.5,289.5C 1349.5,290.5 1349.5,291.5 1349.5,292.5C 1346.68,293.465 1345.35,295.465 1345.5,298.5C 1344.5,298.5 1343.5,298.5 1342.5,298.5C 1342.43,297.041 1342.77,295.708 1343.5,294.5C 1344.71,291.702 1346.71,289.535 1349.5,288C 1350.33,287.833 1351.17,287.667 1352,287.5C 1353.38,287.684 1354.21,288.351 1354.5,289.5 Z"/></g>
<g><path style="opacity:0.382" fill="#f7f7f6" d="M 1343.5,294.5 C 1342.77,295.708 1342.43,297.041 1342.5,298.5C 1342.71,300.179 1342.05,301.179 1340.5,301.5C 1340.34,299.801 1340.51,298.134 1341,296.5C 1341.42,295.244 1342.25,294.577 1343.5,294.5 Z"/></g>
<g><path style="opacity:0.98" fill="#f4f2f1" d="M 489.5,350.5 C 487.027,350.088 485.694,351.088 485.5,353.5C 484.833,353.5 484.5,353.167 484.5,352.5C 484.5,351.167 484.5,349.833 484.5,348.5C 486.781,348.077 488.448,348.744 489.5,350.5 Z"/></g>
<g><path style="opacity:0.953" fill="#f4f1ef" d="M 489.5,350.5 C 491.973,350.088 493.306,351.088 493.5,353.5C 492.833,353.167 492.167,352.833 491.5,352.5C 490.5,352.167 489.833,351.5 489.5,350.5 Z"/></g>
<g><path style="opacity:0.086" fill="#d7d0c9" d="M 489.5,356.5 C 488.391,356.443 487.391,356.11 486.5,355.5C 486.5,354.5 486.5,353.5 486.5,352.5C 487.5,352.5 488.5,352.5 489.5,352.5C 489.5,353.833 489.5,355.167 489.5,356.5 Z"/></g>
<g><path style="opacity:0.109" fill="#dfdad5" d="M 489.5,350.5 C 489.833,351.5 490.5,352.167 491.5,352.5C 491.733,354.062 492.4,355.395 493.5,356.5C 493.167,357.167 492.833,357.833 492.5,358.5C 491.222,358.218 490.222,357.551 489.5,356.5C 489.5,355.167 489.5,353.833 489.5,352.5C 488.5,352.5 487.5,352.5 486.5,352.5C 486.5,353.5 486.5,354.5 486.5,355.5C 485.662,355.158 485.328,354.492 485.5,353.5C 485.694,351.088 487.027,350.088 489.5,350.5 Z"/></g>
<g><path style="opacity:0.937" fill="#e9e6e5" d="M 491.5,352.5 C 492.167,352.833 492.833,353.167 493.5,353.5C 496.587,354.557 499.254,356.391 501.5,359C 503.247,359.352 504.914,359.852 506.5,360.5C 506.5,361.167 506.5,361.833 506.5,362.5C 502.169,360.504 497.836,358.504 493.5,356.5C 492.4,355.395 491.733,354.062 491.5,352.5 Z"/></g>
<g><path style="opacity:0.263" fill="#dcd7d5" d="M 493.5,356.5 C 497.836,358.504 502.169,360.504 506.5,362.5C 508.213,363.635 508.88,365.302 508.5,367.5C 508.167,367.5 507.833,367.5 507.5,367.5C 507.439,365.408 506.439,363.908 504.5,363C 503.5,362.333 502.5,362.333 501.5,363C 502.252,363.671 502.586,364.504 502.5,365.5C 501.163,364.685 500.163,363.518 499.5,362C 497.527,361.505 495.527,361.338 493.5,361.5C 493.737,360.209 493.404,359.209 492.5,358.5C 492.833,357.833 493.167,357.167 493.5,356.5 Z"/></g>
<g><path style="opacity:0.175" fill="#d4cdcc" d="M 507.5,367.5 C 505.446,367.635 503.779,366.968 502.5,365.5C 502.586,364.504 502.252,363.671 501.5,363C 502.5,362.333 503.5,362.333 504.5,363C 506.439,363.908 507.439,365.408 507.5,367.5 Z"/></g>
<g><path style="opacity:0.498" fill="#f1efee" d="M 506.5,360.5 C 510.091,362.782 511.424,366.116 510.5,370.5C 509.599,369.71 508.932,368.71 508.5,367.5C 508.88,365.302 508.213,363.635 506.5,362.5C 506.5,361.833 506.5,361.167 506.5,360.5 Z"/></g>
<g><path style="opacity:0.894" fill="#f1eeeb" d="M 561.5,397.5 C 560.833,397.5 560.167,397.5 559.5,397.5C 558.127,397.657 556.793,397.49 555.5,397C 554.837,395.482 553.837,394.315 552.5,393.5C 551.432,392.566 550.099,392.232 548.5,392.5C 548.5,393.5 548.5,394.5 548.5,395.5C 547.833,395.5 547.5,395.167 547.5,394.5C 547.085,392.052 548.085,390.719 550.5,390.5C 554.006,393.326 557.673,395.659 561.5,397.5 Z"/></g>
<g><path style="opacity:0.178" fill="#e5e1db" d="M 552.5,393.5 C 551.209,393.263 550.209,393.596 549.5,394.5C 549.5,395.5 549.5,396.5 549.5,397.5C 548.662,397.158 548.328,396.492 548.5,395.5C 548.5,394.5 548.5,393.5 548.5,392.5C 550.099,392.232 551.432,392.566 552.5,393.5 Z"/></g>
<g><path style="opacity:0.226" fill="#ded7d0" d="M 549.5,394.5 C 550.209,393.596 551.209,393.263 552.5,393.5C 553.837,394.315 554.837,395.482 555.5,397C 556.793,397.49 558.127,397.657 559.5,397.5C 559.5,397.833 559.5,398.167 559.5,398.5C 557.801,398.34 556.134,398.506 554.5,399C 555.056,399.383 555.389,399.883 555.5,400.5C 553.856,400.19 552.856,399.19 552.5,397.5C 552.5,396.5 552.5,395.5 552.5,394.5C 551.5,394.5 550.5,394.5 549.5,394.5 Z"/></g>
<g><path style="opacity:0.094" fill="#d6d1c7" d="M 549.5,394.5 C 550.5,394.5 551.5,394.5 552.5,394.5C 552.5,395.5 552.5,396.5 552.5,397.5C 551.5,398.833 550.5,398.833 549.5,397.5C 549.5,396.5 549.5,395.5 549.5,394.5 Z"/></g>
<g><path style="opacity:0.335" fill="#dcd1cb" d="M 559.5,398.5 C 561.279,399.67 562.279,401.336 562.5,403.5C 560.5,403.5 558.5,403.5 556.5,403.5C 556.737,402.209 556.404,401.209 555.5,400.5C 555.389,399.883 555.056,399.383 554.5,399C 556.134,398.506 557.801,398.34 559.5,398.5 Z"/></g>
<g><path style="opacity:0.271" fill="#f3efee" d="M 561.5,397.5 C 562.496,397.414 563.329,397.748 564,398.5C 564.497,401.146 564.664,403.813 564.5,406.5C 563.662,406.158 563.328,405.492 563.5,404.5C 563.834,401.812 563.168,399.479 561.5,397.5 Z"/></g>
<g><path style="opacity:0.192" fill="#e8e0dd" d="M 559.5,397.5 C 560.167,397.5 560.833,397.5 561.5,397.5C 563.168,399.479 563.834,401.812 563.5,404.5C 562.833,404.5 562.5,404.167 562.5,403.5C 562.279,401.336 561.279,399.67 559.5,398.5C 559.5,398.167 559.5,397.833 559.5,397.5 Z"/></g>
<g><path style="opacity:0.933" fill="#f6f4f3" d="M 583.5,412.5 C 581.833,412.5 580.167,412.5 578.5,412.5C 578.5,413.5 578.5,414.5 578.5,415.5C 577.794,416.557 577.461,416.224 577.5,414.5C 577.077,411.757 578.244,410.424 581,410.5C 582.376,410.684 583.209,411.351 583.5,412.5 Z"/></g>
<g><path style="opacity:0.151" fill="#e9e4e2" d="M 583.5,412.5 C 583.5,412.833 583.5,413.167 583.5,413.5C 581.517,413.157 580.183,413.824 579.5,415.5C 579.167,415.5 578.833,415.5 578.5,415.5C 578.5,414.5 578.5,413.5 578.5,412.5C 580.167,412.5 581.833,412.5 583.5,412.5 Z"/></g>
<g><path style="opacity:0.722" fill="#e1dad8" d="M 583.5,413.5 C 585.167,414.833 586.833,416.167 588.5,417.5C 588.5,417.833 588.5,418.167 588.5,418.5C 586.938,418.267 585.605,417.6 584.5,416.5C 582.998,413.978 581.665,413.978 580.5,416.5C 579.833,416.5 579.5,416.167 579.5,415.5C 580.183,413.824 581.517,413.157 583.5,413.5 Z"/></g>
<g><path style="opacity:0.166" fill="#d3cac6" d="M 584.5,416.5 C 584.5,417.167 584.5,417.833 584.5,418.5C 584.565,418.938 584.399,419.272 584,419.5C 582.271,419.026 581.105,418.026 580.5,416.5C 581.665,413.978 582.998,413.978 584.5,416.5 Z"/></g>
<g><path style="opacity:1" fill="#f4f2f2" d="M 583.5,413.5 C 583.5,413.167 583.5,412.833 583.5,412.5C 586.144,414.628 589.144,416.128 592.5,417C 595.985,419.617 597.652,423.117 597.5,427.5C 596.167,427.5 595.5,426.833 595.5,425.5C 595.337,421 593.004,418.334 588.5,417.5C 586.833,416.167 585.167,414.833 583.5,413.5 Z"/></g>
<g><path style="opacity:0.98" fill="#e7e4e4" d="M 588.5,418.5 C 588.5,418.167 588.5,417.833 588.5,417.5C 593.004,418.334 595.337,421 595.5,425.5C 594.833,425.167 594.167,424.833 593.5,424.5C 593.313,421.31 591.646,419.31 588.5,418.5 Z"/></g>
<g><path style="opacity:0.453" fill="#dad5d4" d="M 584.5,416.5 C 585.605,417.6 586.938,418.267 588.5,418.5C 591.646,419.31 593.313,421.31 593.5,424.5C 593.565,424.938 593.399,425.272 593,425.5C 591.601,424.773 590.101,424.273 588.5,424C 587.251,422.02 585.918,420.187 584.5,418.5C 584.5,417.833 584.5,417.167 584.5,416.5 Z"/></g>
<g><path style="opacity:0.778" fill="#f6f6f3" d="M 1237.5,449.5 C 1237.5,449.833 1237.5,450.167 1237.5,450.5C 1236.51,450.328 1235.84,450.662 1235.5,451.5C 1234.53,453.607 1234.2,455.941 1234.5,458.5C 1233.37,456.034 1233.2,453.367 1234,450.5C 1235.01,449.663 1236.18,449.33 1237.5,449.5 Z"/></g>
<g><path style="opacity:0.619" fill="#e8e8e3" d="M 1237.5,450.5 C 1237.5,450.833 1237.5,451.167 1237.5,451.5C 1236.53,453.607 1236.2,455.941 1236.5,458.5C 1235.53,456.393 1235.2,454.059 1235.5,451.5C 1235.84,450.662 1236.51,450.328 1237.5,450.5 Z"/></g>
<g><path style="opacity:0.824" fill="#efefeb" d="M 1235.5,451.5 C 1235.2,454.059 1235.53,456.393 1236.5,458.5C 1236.57,461.553 1237.57,464.219 1239.5,466.5C 1238.5,465.833 1237.5,465.167 1236.5,464.5C 1235.71,462.626 1235.05,460.626 1234.5,458.5C 1234.2,455.941 1234.53,453.607 1235.5,451.5 Z"/></g>
<g><path style="opacity:0.546" fill="#e5e5df" d="M 1237.5,451.5 C 1237.5,451.833 1237.5,452.167 1237.5,452.5C 1237.34,455.518 1237.5,458.518 1238,461.5C 1239.69,464.646 1241.52,467.646 1243.5,470.5C 1244.34,470.842 1244.67,471.508 1244.5,472.5C 1241.38,471.712 1239.71,469.712 1239.5,466.5C 1237.57,464.219 1236.57,461.553 1236.5,458.5C 1236.2,455.941 1236.53,453.607 1237.5,451.5 Z"/></g>
<g><path style="opacity:0.142" fill="#dfdfd7" d="M 1237.5,452.5 C 1238.27,453.263 1238.77,454.263 1239,455.5C 1239.33,455.167 1239.67,454.833 1240,454.5C 1240.51,456.878 1241.18,459.212 1242,461.5C 1242.33,461.167 1242.67,460.833 1243,460.5C 1243.5,463.817 1243.67,467.15 1243.5,470.5C 1241.52,467.646 1239.69,464.646 1238,461.5C 1237.5,458.518 1237.34,455.518 1237.5,452.5 Z"/></g>
<g><path style="opacity:0.922" fill="#f5f5f3" d="M 1236.5,464.5 C 1237.5,465.167 1238.5,465.833 1239.5,466.5C 1239.71,469.712 1241.38,471.712 1244.5,472.5C 1244.5,472.833 1244.5,473.167 1244.5,473.5C 1239.78,472.411 1237.12,469.411 1236.5,464.5 Z"/></g>
<g><path style="opacity:0.084" fill="#dddfd1" d="M 1292.5,560.5 C 1294.05,560.821 1294.71,561.821 1294.5,563.5C 1295.5,563.5 1296.5,563.5 1297.5,563.5C 1297.5,565.167 1297.5,566.833 1297.5,568.5C 1291.99,569.017 1286.66,570.017 1281.5,571.5C 1281.77,569.57 1282.77,568.236 1284.5,567.5C 1284.83,567.5 1285.17,567.5 1285.5,567.5C 1287.97,567.245 1289.97,566.245 1291.5,564.5C 1292.23,563.292 1292.57,561.959 1292.5,560.5 Z"/></g>
<g><path style="opacity:0.812" fill="#f5f5f1" d="M 1290.5,557.5 C 1291.17,558.5 1291.83,559.5 1292.5,560.5C 1292.57,561.959 1292.23,563.292 1291.5,564.5C 1288.91,564.461 1286.91,565.461 1285.5,567.5C 1285.17,567.5 1284.83,567.5 1284.5,567.5C 1281.05,566.756 1279.38,568.09 1279.5,571.5C 1278.83,571.5 1278.17,571.5 1277.5,571.5C 1277.3,569.61 1277.96,568.11 1279.5,567C 1283.23,565.787 1286.9,564.62 1290.5,563.5C 1290.5,561.5 1290.5,559.5 1290.5,557.5 Z"/></g>
<g><path style="opacity:0.412" fill="#e6e8dd" d="M 1291.5,564.5 C 1289.97,566.245 1287.97,567.245 1285.5,567.5C 1286.91,565.461 1288.91,564.461 1291.5,564.5 Z"/></g>
<g><path style="opacity:0.157" fill="#e7e9df" d="M 1284.5,567.5 C 1282.77,568.236 1281.77,569.57 1281.5,571.5C 1280.83,571.5 1280.17,571.5 1279.5,571.5C 1279.38,568.09 1281.05,566.756 1284.5,567.5 Z"/></g>
<g><path style="opacity:0.37" fill="#f5f4f4" d="M 465.5,608.5 C 465.663,610.857 465.497,613.19 465,615.5C 464.329,616.252 463.496,616.586 462.5,616.5C 464.081,614.858 464.747,612.858 464.5,610.5C 464.328,609.508 464.662,608.842 465.5,608.5 Z"/></g>
<g><path style="opacity:0.187" fill="#e5e4e3" d="M 464.5,610.5 C 464.747,612.858 464.081,614.858 462.5,616.5C 460.833,617.5 459.5,618.833 458.5,620.5C 455.5,621.5 453.5,623.5 452.5,626.5C 447.242,631.091 442.242,636.091 437.5,641.5C 437.167,641.5 436.833,641.5 436.5,641.5C 436.443,640.391 436.11,639.391 435.5,638.5C 444.81,628.858 454.476,619.525 464.5,610.5 Z"/></g>
<g><path style="opacity:0.875" fill="#f6f6f6" d="M 462.5,616.5 C 461.92,618.749 460.587,620.415 458.5,621.5C 458.5,621.167 458.5,620.833 458.5,620.5C 459.5,618.833 460.833,617.5 462.5,616.5 Z"/></g>
<g><path style="opacity:0.78" fill="#efefee" d="M 458.5,620.5 C 458.5,620.833 458.5,621.167 458.5,621.5C 456.5,623.167 454.5,624.833 452.5,626.5C 453.5,623.5 455.5,621.5 458.5,620.5 Z"/></g>
<g><path style="opacity:0.925" fill="#f3f3f3" d="M 452.5,626.5 C 448.233,632.436 443.233,637.77 437.5,642.5C 437.5,642.167 437.5,641.833 437.5,641.5C 442.242,636.091 447.242,631.091 452.5,626.5 Z"/></g>
<g><path style="opacity:0.306" fill="#e0dfde" d="M 435.5,638.5 C 436.11,639.391 436.443,640.391 436.5,641.5C 434.041,644.099 431.375,646.433 428.5,648.5C 427.873,649.417 427.539,650.417 427.5,651.5C 424.333,654.498 421,657.331 417.5,660C 380.354,698.313 342.687,736.147 304.5,773.5C 300.817,776.185 297.817,779.518 295.5,783.5C 290.568,786.714 286.402,790.714 283,795.5C 275.578,801.42 269.078,808.087 263.5,815.5C 262.833,815.5 262.167,815.5 261.5,815.5C 258.542,816.467 256.875,818.467 256.5,821.5C 256.167,821.5 255.833,821.5 255.5,821.5C 255.5,820.167 255.5,818.833 255.5,817.5C 269.206,801.731 283.706,786.731 299,772.5C 301.131,769.898 302.965,767.232 304.5,764.5C 305.5,764.5 306.5,764.5 307.5,764.5C 307.5,763.5 307.5,762.5 307.5,761.5C 308.675,761.719 309.675,761.386 310.5,760.5C 314.833,755.5 319.5,750.833 324.5,746.5C 325.386,745.675 325.719,744.675 325.5,743.5C 326.5,743.5 327.5,743.5 328.5,743.5C 328.5,742.5 328.5,741.5 328.5,740.5C 329.5,740.5 330.5,740.5 331.5,740.5C 331.5,739.5 331.5,738.5 331.5,737.5C 333.76,736.861 335.76,735.694 337.5,734C 367.694,702.879 398.694,672.379 430.5,642.5C 431.325,641.614 432.325,641.281 433.5,641.5C 433.285,639.821 433.952,638.821 435.5,638.5 Z"/></g>
<g><path style="opacity:0.886" fill="#eeecec" d="M 436.5,641.5 C 436.833,641.5 437.167,641.5 437.5,641.5C 437.5,641.833 437.5,642.167 437.5,642.5C 434.719,645.736 431.719,648.736 428.5,651.5C 428.167,651.5 427.833,651.5 427.5,651.5C 427.539,650.417 427.873,649.417 428.5,648.5C 431.375,646.433 434.041,644.099 436.5,641.5 Z"/></g>
<g><path style="opacity:1" fill="#f0f0ef" d="M 427.5,651.5 C 427.833,651.5 428.167,651.5 428.5,651.5C 423.09,657.768 417.423,663.768 411.5,669.5C 410.675,670.386 409.675,670.719 408.5,670.5C 408.719,671.675 408.386,672.675 407.5,673.5C 397.457,682.709 387.957,692.376 379,702.5C 356.623,724.22 334.456,746.22 312.5,768.5C 311.675,769.386 310.675,769.719 309.5,769.5C 308.29,772.387 306.29,774.72 303.5,776.5C 303.557,775.391 303.89,774.391 304.5,773.5C 342.687,736.147 380.354,698.313 417.5,660C 421,657.331 424.333,654.498 427.5,651.5 Z"/></g>
<g><path style="opacity:0.117" fill="#d2d3cf" d="M 1348.5,761.5 C 1350.86,763.557 1351.86,766.224 1351.5,769.5C 1350.5,769.5 1349.5,769.5 1348.5,769.5C 1348.5,766.833 1348.5,764.167 1348.5,761.5 Z"/></g>
<g><path style="opacity:0.469" fill="#d9dad6" d="M 1348.5,760.5 C 1348.5,760.833 1348.5,761.167 1348.5,761.5C 1348.5,764.167 1348.5,766.833 1348.5,769.5C 1349.5,769.5 1350.5,769.5 1351.5,769.5C 1351.5,770.167 1351.5,770.833 1351.5,771.5C 1349.52,771.843 1348.18,771.176 1347.5,769.5C 1346.08,766.23 1346.41,763.23 1348.5,760.5 Z"/></g>
<g><path style="opacity:0.8" fill="#e3e4e1" d="M 1348.5,759.5 C 1348.5,759.833 1348.5,760.167 1348.5,760.5C 1346.41,763.23 1346.08,766.23 1347.5,769.5C 1346.83,769.167 1346.17,768.833 1345.5,768.5C 1343.9,764.693 1344.9,761.693 1348.5,759.5 Z"/></g>
<g><path style="opacity:0.298" fill="#eeefed" d="M 1345.5,768.5 C 1346.17,768.833 1346.83,769.167 1347.5,769.5C 1348.18,771.176 1349.52,771.843 1351.5,771.5C 1351.5,771.833 1351.5,772.167 1351.5,772.5C 1348.11,773.031 1346.11,771.697 1345.5,768.5 Z"/></g>
<g><path style="opacity:0.957" fill="#edecec" d="M 304.5,773.5 C 303.89,774.391 303.557,775.391 303.5,776.5C 301.386,779.07 299.053,781.403 296.5,783.5C 296.167,783.5 295.833,783.5 295.5,783.5C 297.817,779.518 300.817,776.185 304.5,773.5 Z"/></g>
<g><path style="opacity:1" fill="#f0f0ef" d="M 295.5,783.5 C 295.833,783.5 296.167,783.5 296.5,783.5C 286.161,794.838 275.161,805.505 263.5,815.5C 269.078,808.087 275.578,801.42 283,795.5C 286.402,790.714 290.568,786.714 295.5,783.5 Z"/></g>
<g><path style="opacity:0.957" fill="#f1f0f1" d="M 261.5,815.5 C 262.167,815.5 262.833,815.5 263.5,815.5C 262.833,816.833 261.833,817.833 260.5,818.5C 260.557,817.391 260.89,816.391 261.5,815.5 Z"/></g>
<g><path style="opacity:0.179" fill="#e0d7d6" d="M 255.5,817.5 C 255.5,818.833 255.5,820.167 255.5,821.5C 254.833,822.5 254.167,823.5 253.5,824.5C 253.5,822.5 253.5,820.5 253.5,818.5C 253.842,817.662 254.508,817.328 255.5,817.5 Z"/></g>
<g><path style="opacity:0.653" fill="#e6e6e5" d="M 261.5,815.5 C 260.89,816.391 260.557,817.391 260.5,818.5C 258.859,819.147 257.526,820.147 256.5,821.5C 256.875,818.467 258.542,816.467 261.5,815.5 Z"/></g>
<g><path style="opacity:0.38" fill="#e1c8c8" d="M 253.5,818.5 C 253.5,820.5 253.5,822.5 253.5,824.5C 251.473,827.194 249.139,829.527 246.5,831.5C 245.5,831.5 244.5,831.5 243.5,831.5C 243.5,830.167 243.5,828.833 243.5,827.5C 244.404,826.791 244.737,825.791 244.5,824.5C 245.552,824.649 246.552,824.483 247.5,824C 249.342,821.926 251.342,820.093 253.5,818.5 Z"/></g>
<g><path style="opacity:1" fill="#f4f4f4" d="M 260.5,818.5 C 259.54,820.461 258.207,822.127 256.5,823.5C 256.5,822.833 256.5,822.167 256.5,821.5C 257.526,820.147 258.859,819.147 260.5,818.5 Z"/></g>
<g><path style="opacity:1" fill="#efe2e2" d="M 255.5,821.5 C 255.833,821.5 256.167,821.5 256.5,821.5C 256.5,822.167 256.5,822.833 256.5,823.5C 254.529,825.808 252.529,828.142 250.5,830.5C 249.167,830.833 247.833,831.167 246.5,831.5C 249.139,829.527 251.473,827.194 253.5,824.5C 254.167,823.5 254.833,822.5 255.5,821.5 Z"/></g>
<g><path style="opacity:0.435" fill="#f0e3e3" d="M 243.5,827.5 C 243.5,828.833 243.5,830.167 243.5,831.5C 244.5,831.5 245.5,831.5 246.5,831.5C 245.081,832.451 243.415,832.784 241.5,832.5C 241.5,831.833 241.5,831.167 241.5,830.5C 241.932,829.29 242.599,828.29 243.5,827.5 Z"/></g>
<g><path style="opacity:0.996" fill="#f8f3f3" d="M 250.5,830.5 C 248.548,832.666 246.048,833.999 243,834.5C 241.97,834.164 241.47,833.497 241.5,832.5C 243.415,832.784 245.081,832.451 246.5,831.5C 247.833,831.167 249.167,830.833 250.5,830.5 Z"/></g>
<g><path style="opacity:0.184" fill="#e5e3e1" d="M 1584.5,959.5 C 1585.4,960.209 1585.74,961.209 1585.5,962.5C 1587.46,966.862 1588.46,971.529 1588.5,976.5C 1587.64,973.825 1586.48,971.158 1585,968.5C 1584.5,965.518 1584.34,962.518 1584.5,959.5 Z"/></g>
<g><path style="opacity:0.046" fill="#dfdbda" d="M 1585.5,962.5 C 1587.65,966.258 1589.98,969.924 1592.5,973.5C 1590.78,976.918 1591.44,979.584 1594.5,981.5C 1592.49,981.608 1590.82,980.942 1589.5,979.5C 1589.44,978.391 1589.11,977.391 1588.5,976.5C 1588.46,971.529 1587.46,966.862 1585.5,962.5 Z"/></g>
<g><path style="opacity:0.669" fill="#f2f1f0" d="M 1583.5,959.5 C 1583.83,959.5 1584.17,959.5 1584.5,959.5C 1584.34,962.518 1584.5,965.518 1585,968.5C 1586.48,971.158 1587.64,973.825 1588.5,976.5C 1589.11,977.391 1589.44,978.391 1589.5,979.5C 1588.5,979.586 1587.67,979.252 1587,978.5C 1583.92,972.554 1582.75,966.221 1583.5,959.5 Z"/></g>
<g><path style="opacity:0.445" fill="#f2f1f0" d="M 1589.5,979.5 C 1590.82,980.942 1592.49,981.608 1594.5,981.5C 1594.5,981.833 1594.5,982.167 1594.5,982.5C 1590.81,985.484 1589.14,984.484 1589.5,979.5 Z"/></g>
<g><path style="opacity:0.259" fill="#e3e3e2" d="M 7.5,1037.5 C 7.66212,1039.53 7.49546,1041.53 7,1043.5C 5.0073,1045.82 3.84063,1048.48 3.5,1051.5C 2.59603,1052.21 2.26269,1053.21 2.5,1054.5C 1.5,1054.5 0.5,1054.5 -0.5,1054.5C -0.5,1053.83 -0.5,1053.17 -0.5,1052.5C 2.56458,1048.71 4.89792,1044.38 6.5,1039.5C 6.32842,1038.51 6.66175,1037.84 7.5,1037.5 Z"/></g>
<g><path style="opacity:0.439" fill="#dadad8" d="M 6.5,1039.5 C 4.89792,1044.38 2.56458,1048.71 -0.5,1052.5C -0.5,1048.5 -0.5,1044.5 -0.5,1040.5C 1.76375,1039.78 4.09709,1039.45 6.5,1039.5 Z"/></g>
<g><path style="opacity:1" fill="#f3f3f2" d="M 7.5,1037.5 C 8.16667,1037.5 8.83333,1037.5 9.5,1037.5C 8.90057,1042.77 6.90057,1047.43 3.5,1051.5C 3.84063,1048.48 5.0073,1045.82 7,1043.5C 7.49546,1041.53 7.66212,1039.53 7.5,1037.5 Z"/></g>
<g><path style="opacity:0.749" fill="#f1f1f1" d="M 3.5,1051.5 C 4.24365,1054.95 2.91032,1056.62 -0.5,1056.5C -0.5,1055.83 -0.5,1055.17 -0.5,1054.5C 0.5,1054.5 1.5,1054.5 2.5,1054.5C 2.26269,1053.21 2.59603,1052.21 3.5,1051.5 Z"/></g>
<g><path style="opacity:0.766" fill="#f1efef" d="M 47.5,1117.5 C 45.8333,1117.5 44.1667,1117.5 42.5,1117.5C 42.5,1118.83 42.5,1120.17 42.5,1121.5C 42.1667,1121.5 41.8333,1121.5 41.5,1121.5C 41.5,1119.83 41.5,1118.17 41.5,1116.5C 43.7354,1116.21 45.7354,1116.54 47.5,1117.5 Z"/></g>
<g><path style="opacity:0.555" fill="#e7e5e5" d="M 47.5,1117.5 C 47.5,1117.83 47.5,1118.17 47.5,1118.5C 46.1667,1118.5 44.8333,1118.5 43.5,1118.5C 43.5,1119.5 43.5,1120.5 43.5,1121.5C 43.1667,1121.5 42.8333,1121.5 42.5,1121.5C 42.5,1120.17 42.5,1118.83 42.5,1117.5C 44.1667,1117.5 45.8333,1117.5 47.5,1117.5 Z"/></g>
<g><path style="opacity:0.115" fill="#dddada" d="M 47.5,1118.5 C 49.8083,1119.79 52.1417,1121.13 54.5,1122.5C 54.9731,1123.91 55.9731,1124.57 57.5,1124.5C 57.9731,1125.91 58.9731,1126.57 60.5,1126.5C 60.6716,1127.49 60.3382,1128.16 59.5,1128.5C 55.5339,1127.51 51.5339,1126.51 47.5,1125.5C 45.9208,1124.33 44.5875,1123 43.5,1121.5C 43.5,1120.5 43.5,1119.5 43.5,1118.5C 44.8333,1118.5 46.1667,1118.5 47.5,1118.5 Z"/></g>
<g><path style="opacity:0.749" fill="#f1f0f0" d="M 47.5,1117.5 C 53.9655,1119.56 59.6322,1122.9 64.5,1127.5C 63.1667,1127.17 61.8333,1126.83 60.5,1126.5C 60.0269,1125.09 59.0269,1124.43 57.5,1124.5C 57.0269,1123.09 56.0269,1122.43 54.5,1122.5C 52.1417,1121.13 49.8083,1119.79 47.5,1118.5C 47.5,1118.17 47.5,1117.83 47.5,1117.5 Z"/></g>
<g><path style="opacity:0.553" fill="#e7e4e4" d="M 54.5,1122.5 C 56.0269,1122.43 57.0269,1123.09 57.5,1124.5C 55.9731,1124.57 54.9731,1123.91 54.5,1122.5 Z"/></g>
<g><path style="opacity:0.39" fill="#e6e4e4" d="M 57.5,1124.5 C 59.0269,1124.43 60.0269,1125.09 60.5,1126.5C 58.9731,1126.57 57.9731,1125.91 57.5,1124.5 Z"/></g>
<g><path style="opacity:0.471" fill="#e5e4e3" d="M 60.5,1126.5 C 61.8333,1126.83 63.1667,1127.17 64.5,1127.5C 66.1788,1127.29 67.1788,1127.95 67.5,1129.5C 67.7678,1131.1 67.4345,1132.43 66.5,1133.5C 66.5,1131.83 66.5,1130.17 66.5,1128.5C 64.901,1128.23 63.5676,1128.57 62.5,1129.5C 62.5,1129.83 62.5,1130.17 62.5,1130.5C 61.2905,1130.07 60.2905,1129.4 59.5,1128.5C 60.3382,1128.16 60.6716,1127.49 60.5,1126.5 Z"/></g>
<g><path style="opacity:0.23" fill="#cbcbca" d="M 62.5,1129.5 C 63.5,1129.5 64.5,1129.5 65.5,1129.5C 65.7148,1131.18 65.0481,1132.18 63.5,1132.5C 63.1667,1131.83 62.8333,1131.17 62.5,1130.5C 62.5,1130.17 62.5,1129.83 62.5,1129.5 Z"/></g>
<g><path style="opacity:0.565" fill="#d6d6d5" d="M 62.5,1129.5 C 63.5676,1128.57 64.901,1128.23 66.5,1128.5C 66.5,1130.17 66.5,1131.83 66.5,1133.5C 65.5,1133.5 64.5,1133.5 63.5,1133.5C 63.5,1133.17 63.5,1132.83 63.5,1132.5C 65.0481,1132.18 65.7148,1131.18 65.5,1129.5C 64.5,1129.5 63.5,1129.5 62.5,1129.5 Z"/></g>
<g><path style="opacity:0.957" fill="#ebebeb" d="M 67.5,1129.5 C 69.1678,1133.28 67.8345,1135.28 63.5,1135.5C 63.5,1134.83 63.5,1134.17 63.5,1133.5C 64.5,1133.5 65.5,1133.5 66.5,1133.5C 67.4345,1132.43 67.7678,1131.1 67.5,1129.5 Z"/></g>
<g><path style="opacity:0.234" fill="#d4d4d4" d="M 49.5,1165.5 C 50.1667,1165.83 50.8333,1166.17 51.5,1166.5C 54.0201,1172.07 52.3534,1175.07 46.5,1175.5C 48.4953,1172.57 49.4953,1169.24 49.5,1165.5 Z"/></g>
<g><path style="opacity:0.204" fill="#e3e3e3" d="M 51.5,1166.5 C 52.1174,1166.61 52.6174,1166.94 53,1167.5C 55.1639,1173.82 52.9972,1176.82 46.5,1176.5C 46.5,1176.17 46.5,1175.83 46.5,1175.5C 52.3534,1175.07 54.0201,1172.07 51.5,1166.5 Z"/></g>
<g><path style="opacity:0.286" fill="#f0f0f0" d="M 49.5,1165.5 C 49.5,1165.17 49.5,1164.83 49.5,1164.5C 51.3904,1164.3 52.8904,1164.96 54,1166.5C 54.6667,1169.5 54.6667,1172.5 54,1175.5C 51.8646,1177.28 49.3646,1177.95 46.5,1177.5C 46.5,1177.17 46.5,1176.83 46.5,1176.5C 52.9972,1176.82 55.1639,1173.82 53,1167.5C 52.6174,1166.94 52.1174,1166.61 51.5,1166.5C 50.8333,1166.17 50.1667,1165.83 49.5,1165.5 Z"/></g>
<g><path style="opacity:0.649" fill="#e3e3e3" d="M 43.5,1186.5 C 46.5279,1188.95 47.1945,1191.95 45.5,1195.5C 44.2921,1196.23 42.9587,1196.57 41.5,1196.5C 41.5,1195.83 41.1667,1195.5 40.5,1195.5C 40.5,1195.17 40.5,1194.83 40.5,1194.5C 43.0873,1195.85 44.4206,1194.85 44.5,1191.5C 44.2811,1189.08 42.9477,1188.08 40.5,1188.5C 41.2905,1187.6 42.2905,1186.93 43.5,1186.5 Z"/></g>
<g><path style="opacity:0.994" fill="#f3f3f3" d="M 43.5,1182.5 C 45.3235,1185.13 46.6568,1188.13 47.5,1191.5C 47.6598,1193.35 46.9931,1194.69 45.5,1195.5C 47.1945,1191.95 46.5279,1188.95 43.5,1186.5C 43.5,1185.17 43.5,1183.83 43.5,1182.5 Z"/></g>
<g><path style="opacity:0.214" fill="#d3d3d3" d="M 40.5,1188.5 C 42.9477,1188.08 44.2811,1189.08 44.5,1191.5C 44.4206,1194.85 43.0873,1195.85 40.5,1194.5C 40.5,1192.5 40.5,1190.5 40.5,1188.5 Z"/></g>
<g><path style="opacity:0.817" fill="#f4f4f4" d="M 45.5,1195.5 C 45.5824,1197.25 44.7491,1198.25 43,1198.5C 41.9701,1198.16 41.4701,1197.5 41.5,1196.5C 42.9587,1196.57 44.2921,1196.23 45.5,1195.5 Z"/></g>
<g><path style="opacity:0.763" fill="#f2f1f1" d="M 37.5,1204.5 C 37.5,1204.17 37.5,1203.83 37.5,1203.5C 38.4959,1203.41 39.3292,1203.75 40,1204.5C 40.7958,1207.04 40.6291,1209.37 39.5,1211.5C 39.7947,1209.26 39.4614,1207.26 38.5,1205.5C 38.5,1204.83 38.1667,1204.5 37.5,1204.5 Z"/></g>
<g><path style="opacity:0.098" fill="#d7d4d2" d="M 37.5,1204.5 C 38.1667,1204.5 38.5,1204.83 38.5,1205.5C 38.4249,1208.21 38.0916,1210.87 37.5,1213.5C 36.1667,1214.17 34.8333,1214.83 33.5,1215.5C 33.5,1213.17 33.5,1210.83 33.5,1208.5C 34.5,1208.5 35.5,1208.5 36.5,1208.5C 36.4326,1207.04 36.7659,1205.71 37.5,1204.5 Z"/></g>
<g><path style="opacity:0.757" fill="#e9e8e7" d="M 38.5,1205.5 C 39.4614,1207.26 39.7947,1209.26 39.5,1211.5C 39.5,1211.83 39.5,1212.17 39.5,1212.5C 38.8333,1212.83 38.1667,1213.17 37.5,1213.5C 38.0916,1210.87 38.4249,1208.21 38.5,1205.5 Z"/></g>
<g><path style="opacity:0.827" fill="#f3f2f2" d="M 39.5,1212.5 C 39.7271,1214.93 38.7271,1216.6 36.5,1217.5C 36.8333,1216.17 37.1667,1214.83 37.5,1213.5C 38.1667,1213.17 38.8333,1212.83 39.5,1212.5 Z"/></g>
<g><path style="opacity:0.224" fill="#e7e4e4" d="M 37.5,1213.5 C 37.1667,1214.83 36.8333,1216.17 36.5,1217.5C 34.901,1217.77 33.5676,1217.43 32.5,1216.5C 33.1667,1216.5 33.5,1216.17 33.5,1215.5C 34.8333,1214.83 36.1667,1214.17 37.5,1213.5 Z"/></g>
<g><path style="opacity:0.097" fill="#e2e1e1" d="M 28.5,1222.5 C 28.5,1222.17 28.5,1221.83 28.5,1221.5C 30.698,1221.12 32.3646,1221.79 33.5,1223.5C 31.8828,1222.96 30.2161,1222.63 28.5,1222.5 Z"/></g>
<g><path style="opacity:0.315" fill="#d3d2d2" d="M 28.5,1222.5 C 30.2161,1222.63 31.8828,1222.96 33.5,1223.5C 35.2845,1225.95 36.6178,1228.61 37.5,1231.5C 34.5,1231.5 31.5,1231.5 28.5,1231.5C 28.5,1228.5 28.5,1225.5 28.5,1222.5 Z"/></g>
<g><path style="opacity:1" fill="#f0f0f0" d="M 28.5,1221.5 C 28.5,1221.17 28.5,1220.83 28.5,1220.5C 30.1992,1220.34 31.8659,1220.51 33.5,1221C 37.348,1223.65 39.6814,1227.15 40.5,1231.5C 40.1667,1231.5 39.8333,1231.5 39.5,1231.5C 38.6872,1228.01 36.6872,1225.34 33.5,1223.5C 32.3646,1221.79 30.698,1221.12 28.5,1221.5 Z"/></g>
<g><path style="opacity:0.914" fill="#dddddd" d="M 33.5,1223.5 C 36.6872,1225.34 38.6872,1228.01 39.5,1231.5C 38.8333,1231.5 38.1667,1231.5 37.5,1231.5C 36.6178,1228.61 35.2845,1225.95 33.5,1223.5 Z"/></g>
<g><path style="opacity:0.768" fill="#f2f1f1" d="M 271.5,1300.5 C 269.167,1300.5 266.833,1300.5 264.5,1300.5C 264.5,1301.5 264.5,1302.5 264.5,1303.5C 263.833,1303.5 263.167,1303.5 262.5,1303.5C 262.5,1302.17 262.5,1300.83 262.5,1299.5C 265.713,1299.19 268.713,1299.52 271.5,1300.5 Z"/></g>
<g><path style="opacity:0.214" fill="#e7e5e5" d="M 271.5,1300.5 C 272.5,1301.17 273.5,1301.83 274.5,1302.5C 274.5,1302.83 274.5,1303.17 274.5,1303.5C 272.658,1303.28 270.825,1302.94 269,1302.5C 267.624,1302.68 266.791,1303.35 266.5,1304.5C 265.833,1304.17 265.167,1303.83 264.5,1303.5C 264.5,1302.5 264.5,1301.5 264.5,1300.5C 266.833,1300.5 269.167,1300.5 271.5,1300.5 Z"/></g>
<g><path style="opacity:0.106" fill="#dad7d6" d="M 274.5,1303.5 C 275.404,1304.21 275.737,1305.21 275.5,1306.5C 272.739,1305.08 269.739,1304.41 266.5,1304.5C 266.791,1303.35 267.624,1302.68 269,1302.5C 270.825,1302.94 272.658,1303.28 274.5,1303.5 Z"/></g>
<g><path style="opacity:0.318" fill="#efeeed" d="M 274.5,1303.5 C 274.5,1303.17 274.5,1302.83 274.5,1302.5C 276.176,1303.18 276.843,1304.52 276.5,1306.5C 276.167,1306.5 275.833,1306.5 275.5,1306.5C 275.737,1305.21 275.404,1304.21 274.5,1303.5 Z"/></g>
<g><path style="opacity:0.736" fill="#f1f0f0" d="M 525.5,1382.5 C 525.167,1382.5 524.833,1382.5 524.5,1382.5C 524.167,1382.5 523.833,1382.5 523.5,1382.5C 521.052,1381.53 518.385,1381.19 515.5,1381.5C 515.5,1382.5 515.5,1383.5 515.5,1384.5C 515.167,1384.5 514.833,1384.5 514.5,1384.5C 514.5,1383.17 514.5,1381.83 514.5,1380.5C 518.649,1379.92 522.316,1380.59 525.5,1382.5 Z"/></g>
<g><path style="opacity:0.387" fill="#e7e4e4" d="M 523.5,1382.5 C 521.833,1382.5 520.167,1382.5 518.5,1382.5C 518.5,1383.5 518.5,1384.5 518.5,1385.5C 517.609,1384.89 516.609,1384.56 515.5,1384.5C 515.5,1383.5 515.5,1382.5 515.5,1381.5C 518.385,1381.19 521.052,1381.53 523.5,1382.5 Z"/></g>
<g><path style="opacity:0.323" fill="#dedcdc" d="M 523.5,1382.5 C 523.833,1382.5 524.167,1382.5 524.5,1382.5C 525.167,1383.17 525.833,1383.83 526.5,1384.5C 524.801,1384.38 523.135,1384.05 521.5,1383.5C 520.287,1383.75 519.62,1384.41 519.5,1385.5C 519.167,1385.5 518.833,1385.5 518.5,1385.5C 518.5,1384.5 518.5,1383.5 518.5,1382.5C 520.167,1382.5 521.833,1382.5 523.5,1382.5 Z"/></g>
<g><path style="opacity:0.573" fill="#e7e5e5" d="M 524.5,1382.5 C 524.833,1382.5 525.167,1382.5 525.5,1382.5C 526.167,1382.5 526.833,1382.5 527.5,1382.5C 528.301,1384.04 528.634,1385.71 528.5,1387.5C 528.167,1387.5 527.833,1387.5 527.5,1387.5C 527.737,1386.21 527.404,1385.21 526.5,1384.5C 525.833,1383.83 525.167,1383.17 524.5,1382.5 Z"/></g>
<g><path style="opacity:0.078" fill="#d7d4d4" d="M 526.5,1384.5 C 527.404,1385.21 527.737,1386.21 527.5,1387.5C 525.2,1385.8 522.533,1385.13 519.5,1385.5C 519.62,1384.41 520.287,1383.75 521.5,1383.5C 523.135,1384.05 524.801,1384.38 526.5,1384.5 Z"/></g>
<g><path style="opacity:0.28" fill="#f2f1f1" d="M 527.5,1382.5 C 530.084,1383.05 531.084,1384.71 530.5,1387.5C 529.833,1387.5 529.167,1387.5 528.5,1387.5C 528.634,1385.71 528.301,1384.04 527.5,1382.5 Z"/></g>
<g><path style="opacity:0.714" fill="#f0efef" d="M 583.5,1402.5 C 584.919,1401.55 586.585,1401.22 588.5,1401.5C 593.004,1401.88 595.337,1404.21 595.5,1408.5C 594.833,1408.5 594.167,1408.5 593.5,1408.5C 593.463,1405.3 591.797,1403.63 588.5,1403.5C 587.081,1402.55 585.415,1402.22 583.5,1402.5 Z"/></g>
<g><path style="opacity:0.452" fill="#f4f4f4" d="M 588.5,1401.5 C 586.585,1401.22 584.919,1401.55 583.5,1402.5C 581.952,1402.82 581.285,1403.82 581.5,1405.5C 580.833,1405.5 580.167,1405.5 579.5,1405.5C 579.297,1403.61 579.963,1402.11 581.5,1401C 584.039,1400.2 586.372,1400.37 588.5,1401.5 Z"/></g>
<g><path style="opacity:0.458" fill="#e6e4e4" d="M 583.5,1402.5 C 585.415,1402.22 587.081,1402.55 588.5,1403.5C 587.167,1403.5 585.833,1403.5 584.5,1403.5C 584.5,1404.5 584.5,1405.5 584.5,1406.5C 583.609,1405.89 582.609,1405.56 581.5,1405.5C 581.285,1403.82 581.952,1402.82 583.5,1402.5 Z"/></g>
<g><path style="opacity:0.196" fill="#dcd9d9" d="M 588.5,1403.5 C 591.797,1403.63 593.463,1405.3 593.5,1408.5C 590.838,1406.73 587.838,1406.07 584.5,1406.5C 584.5,1405.5 584.5,1404.5 584.5,1403.5C 585.833,1403.5 587.167,1403.5 588.5,1403.5 Z"/></g>
<g><path style="opacity:0.42" fill="#f3f3f2" d="M 654.5,1422.5 C 651.813,1422.34 649.146,1422.5 646.5,1423C 645.663,1424.01 645.33,1425.18 645.5,1426.5C 645.167,1426.5 644.833,1426.5 644.5,1426.5C 644.286,1424.86 644.62,1423.36 645.5,1422C 648.696,1421.2 651.696,1421.36 654.5,1422.5 Z"/></g>
<g><path style="opacity:0.323" fill="#dededd" d="M 665.5,1429.5 C 666.404,1430.21 666.737,1431.21 666.5,1432.5C 659.667,1431.07 653,1429.41 646.5,1427.5C 646.147,1425.37 646.98,1424.03 649,1423.5C 654.498,1425.74 659.998,1427.74 665.5,1429.5 Z"/></g>
<g><path style="opacity:0.982" fill="#f4f4f3" d="M 654.5,1422.5 C 656.38,1422.23 657.713,1422.9 658.5,1424.5C 656.62,1424.77 655.287,1424.1 654.5,1422.5 Z"/></g>
<g><path style="opacity:0.85" fill="#e6e6e5" d="M 654.5,1422.5 C 655.287,1424.1 656.62,1424.77 658.5,1424.5C 659.209,1425.4 660.209,1425.74 661.5,1425.5C 661.821,1427.05 662.821,1427.71 664.5,1427.5C 664.833,1428.17 665.167,1428.83 665.5,1429.5C 659.998,1427.74 654.498,1425.74 649,1423.5C 646.98,1424.03 646.147,1425.37 646.5,1427.5C 645.833,1427.5 645.5,1427.17 645.5,1426.5C 645.33,1425.18 645.663,1424.01 646.5,1423C 649.146,1422.5 651.813,1422.34 654.5,1422.5 Z"/></g>
<g><path style="opacity:0.984" fill="#f2f2f1" d="M 661.5,1425.5 C 663.179,1425.29 664.179,1425.95 664.5,1427.5C 662.821,1427.71 661.821,1427.05 661.5,1425.5 Z"/></g>
<g><path style="opacity:0.667" fill="#efefee" d="M 664.5,1427.5 C 667.833,1427.5 669.5,1429.17 669.5,1432.5C 668.5,1432.5 667.5,1432.5 666.5,1432.5C 666.737,1431.21 666.404,1430.21 665.5,1429.5C 665.167,1428.83 664.833,1428.17 664.5,1427.5 Z"/></g>
<g><path style="opacity:0.833" fill="#f4f3f3" d="M 726.5,1450.5 C 726.167,1450.5 725.833,1450.5 725.5,1450.5C 725.833,1447.5 724.5,1446.17 721.5,1446.5C 721.389,1445.88 721.056,1445.38 720.5,1445C 717.518,1444.5 714.518,1444.34 711.5,1444.5C 711.5,1445.5 711.5,1446.5 711.5,1447.5C 710.833,1447.5 710.167,1447.5 709.5,1447.5C 709.297,1445.61 709.963,1444.11 711.5,1443C 716.907,1441.78 721.741,1442.95 726,1446.5C 726.49,1447.79 726.657,1449.13 726.5,1450.5 Z"/></g>
<g><path style="opacity:0.425" fill="#e5e3e3" d="M 721.5,1446.5 C 720.033,1446.11 718.533,1445.77 717,1445.5C 715.624,1445.68 714.791,1446.35 714.5,1447.5C 713.5,1447.5 712.5,1447.5 711.5,1447.5C 711.5,1446.5 711.5,1445.5 711.5,1444.5C 714.518,1444.34 717.518,1444.5 720.5,1445C 721.056,1445.38 721.389,1445.88 721.5,1446.5 Z"/></g>
<g><path style="opacity:0.412" fill="#e6e5e5" d="M 721.5,1446.5 C 724.5,1446.17 725.833,1447.5 725.5,1450.5C 724.833,1450.5 724.167,1450.5 723.5,1450.5C 723.473,1448.8 722.806,1447.47 721.5,1446.5 Z"/></g>
<g><path style="opacity:0.041" fill="#dad7d7" d="M 721.5,1446.5 C 722.806,1447.47 723.473,1448.8 723.5,1450.5C 720.768,1448.91 717.768,1447.91 714.5,1447.5C 714.791,1446.35 715.624,1445.68 717,1445.5C 718.533,1445.77 720.033,1446.11 721.5,1446.5 Z"/></g>
<g><path style="opacity:0.81" fill="#f1f0f0" d="M 835.5,1484.5 C 834.833,1484.17 834.167,1483.83 833.5,1483.5C 833.254,1480.53 831.588,1479.2 828.5,1479.5C 826.735,1478.54 824.735,1478.21 822.5,1478.5C 822.97,1477.31 823.97,1476.64 825.5,1476.5C 828.49,1477.33 831.49,1478.16 834.5,1479C 835.406,1480.7 835.739,1482.53 835.5,1484.5 Z"/></g>
<g><path style="opacity:0.408" fill="#e3e1e1" d="M 822.5,1478.5 C 824.735,1478.21 826.735,1478.54 828.5,1479.5C 826.585,1479.22 824.919,1479.55 823.5,1480.5C 822.209,1480.26 821.209,1480.6 820.5,1481.5C 820.167,1481.5 819.833,1481.5 819.5,1481.5C 819.5,1479.5 820.5,1478.5 822.5,1478.5 Z"/></g>
<g><path style="opacity:0.085" fill="#d6d2d1" d="M 820.5,1481.5 C 821.209,1480.6 822.209,1480.26 823.5,1480.5C 826.32,1480.25 828.986,1480.75 831.5,1482C 830.944,1482.38 830.611,1482.88 830.5,1483.5C 827.448,1481.82 824.115,1481.16 820.5,1481.5 Z"/></g>
<g><path style="opacity:0.082" fill="#dddad9" d="M 823.5,1480.5 C 824.919,1479.55 826.585,1479.22 828.5,1479.5C 831.588,1479.2 833.254,1480.53 833.5,1483.5C 832.5,1483.5 831.5,1483.5 830.5,1483.5C 830.611,1482.88 830.944,1482.38 831.5,1482C 828.986,1480.75 826.32,1480.25 823.5,1480.5 Z"/></g>
</svg>
