<?xml version="1.0" encoding="UTF-8"?>
<!DOCTYPE svg PUBLIC "-//W3C//DTD SVG 1.1//EN" "http://www.w3.org/Graphics/SVG/1.1/DTD/svg11.dtd">
<svg xmlns="http://www.w3.org/2000/svg" version="1.1" width="2075px" height="815px" style="shape-rendering:geometricPrecision; text-rendering:geometricPrecision; image-rendering:optimizeQuality; fill-rule:evenodd; clip-rule:evenodd" xmlns:xlink="http://www.w3.org/1999/xlink">
<g><path style="opacity:1" fill="#960004" d="M 588.5,-0.5 C 594.833,-0.5 601.167,-0.5 607.5,-0.5C 610.079,1.88926 613.079,3.72259 616.5,5C 616.167,5.33333 615.833,5.66667 615.5,6C 623.151,10.3311 630.818,14.6644 638.5,19C 638.167,19.3333 637.833,19.6667 637.5,20C 644.883,27.7774 651.383,36.2774 657,45.5C 660.068,47.2991 661.902,49.9658 662.5,53.5C 664.856,56.0217 667.023,58.6884 669,61.5C 669.265,66.975 671.265,71.6416 675,75.5C 676.391,79.5291 677.725,83.5291 679,87.5C 682.793,91.3634 684.959,96.0301 685.5,101.5C 689.219,108.727 692.552,116.06 695.5,123.5C 695.833,124.5 696.5,125.167 697.5,125.5C 700.088,130.595 702.088,135.928 703.5,141.5C 703.167,143.167 702.833,144.833 702.5,146.5C 700.206,147.706 697.873,148.706 695.5,149.5C 695.719,150.675 695.386,151.675 694.5,152.5C 682.833,163.667 671.167,174.833 659.5,186C 653.783,190.016 647.95,193.849 642,197.5C 640.035,209.099 639.368,220.766 640,232.5C 645.186,246.931 650.52,261.264 656,275.5C 661.324,279.991 666.157,284.991 670.5,290.5C 670.291,291.086 669.957,291.586 669.5,292C 664.066,292.871 658.732,294.038 653.5,295.5C 653.232,297.099 653.566,298.432 654.5,299.5C 654.664,302.187 654.497,304.854 654,307.5C 650.73,308.132 647.563,308.799 644.5,309.5C 642.052,310.473 639.385,310.806 636.5,310.5C 634.392,320.48 632.059,330.314 629.5,340C 650.305,354.305 670.972,368.805 691.5,383.5C 696.375,386.846 698.708,391.512 698.5,397.5C 698.75,399.674 699.75,401.341 701.5,402.5C 740.7,432.597 779.7,462.93 818.5,493.5C 822.085,500.659 825.085,507.993 827.5,515.5C 827.595,517.786 828.262,519.786 829.5,521.5C 830.57,524.014 831.57,526.681 832.5,529.5C 830.282,536.446 826.949,543.28 822.5,550C 821.29,552.506 820.457,555.006 820,557.5C 847.732,596.797 875.898,636.13 904.5,675.5C 905.833,677.5 905.833,679.5 904.5,681.5C 846.038,719.291 788.038,756.791 730.5,794C 730.833,794.333 731.167,794.667 731.5,795C 727.828,796.17 724.162,797.337 720.5,798.5C 697.199,802.17 673.866,805.17 650.5,807.5C 644.335,808.216 638.335,809.216 632.5,810.5C 625.174,812.161 617.841,813.494 610.5,814.5C 601.5,814.5 592.5,814.5 583.5,814.5C 533.234,798.618 482.234,782.284 430.5,765.5C 426.809,764.979 423.143,764.312 419.5,763.5C 391.276,753.719 362.11,744.719 332,736.5C 317.336,730.043 302.17,725.21 286.5,722C 286.833,721.667 287.167,721.333 287.5,721C 237.306,706.256 188.306,690.256 140.5,673C 137.5,672.667 134.5,672.333 131.5,672C 104.704,662.554 77.7043,653.887 50.5,646C 50.8333,645.667 51.1667,645.333 51.5,645C 41.8605,642.475 32.5271,639.308 23.5,635.5C 21.369,634.686 19.0356,634.186 16.5,634C 15.5769,631.959 15.2436,629.792 15.5,627.5C 21.0229,613.125 26.6895,598.625 32.5,584C 31.7282,582.779 30.7282,581.779 29.5,581C 20.6667,578.613 12.5,574.78 5,569.5C 3.01918,562.745 1.18585,556.079 -0.5,549.5C -0.5,544.833 -0.5,540.167 -0.5,535.5C 1.26241,535.643 2.92908,535.309 4.5,534.5C 16.0324,526.803 27.6991,519.303 39.5,512C 110.149,441.184 180.815,370.684 251.5,300.5C 263.295,295.773 275.295,291.606 287.5,288C 290.146,287.503 292.813,287.336 295.5,287.5C 309.598,286.849 323.598,286.183 337.5,285.5C 337.408,274.875 337.408,264.375 337.5,254C 334.947,251.889 332.614,249.556 330.5,247C 330.833,246.667 331.167,246.333 331.5,246C 326.06,239.889 321.06,233.389 316.5,226.5C 310.893,221.047 304.893,216.214 298.5,212C 278.376,199.837 258.376,186.67 238.5,172.5C 237.335,164.521 237.168,156.521 238,148.5C 240.572,142.057 242.572,135.39 244,128.5C 244.333,128.833 244.667,129.167 245,129.5C 247.029,125.304 250.196,122.304 254.5,120.5C 261.767,116.657 269.267,113.324 277,110.5C 281.472,100.783 286.138,91.116 291,81.5C 299.899,72.1592 310.066,63.4925 321.5,55.5C 326.272,54.4684 330.939,53.3017 335.5,52C 338.482,51.502 341.482,51.3354 344.5,51.5C 351.648,50.6903 358.648,49.6903 365.5,48.5C 366.5,48.5 367.5,48.5 368.5,48.5C 372.785,47.7917 377.118,47.2917 381.5,47C 382.056,46.6174 382.389,46.1174 382.5,45.5C 385.482,41.8042 388.816,38.3042 392.5,35C 406.5,34.6667 420.5,34.3333 434.5,34C 433.833,33.6667 433.167,33.3333 432.5,33C 436.5,32.6667 440.5,32.3333 444.5,32C 456.438,23.8633 468.438,17.0299 480.5,11.5C 491.348,13.6475 502.014,16.6475 512.5,20.5C 525.379,16.6596 538.712,12.1596 552.5,7C 556.152,6.50137 559.818,6.3347 563.5,6.5C 563.833,6.5 564.167,6.5 564.5,6.5C 570.697,5.97563 576.697,4.97563 582.5,3.5C 582.369,2.62356 582.702,1.95689 583.5,1.5C 585.336,0.972438 587.003,0.305771 588.5,-0.5 Z"/></g>
<g><path style="opacity:0.004" fill="#fdfefd" d="M 565.5,4.5 C 565.167,5.16667 564.833,5.83333 564.5,6.5C 564.167,6.5 563.833,6.5 563.5,6.5C 563.5,5.16667 564.167,4.5 565.5,4.5 Z"/></g>
<g><path style="opacity:0.059" fill="#b24547" d="M 582.5,3.5 C 576.697,4.97563 570.697,5.97563 564.5,6.5C 564.833,5.83333 565.167,5.16667 565.5,4.5C 571.189,4.46757 576.855,4.13424 582.5,3.5 Z"/></g>
<g><path style="opacity:0.09" fill="#b64d4e" d="M 382.5,45.5 C 382.389,46.1174 382.056,46.6174 381.5,47C 377.118,47.2917 372.785,47.7917 368.5,48.5C 372.761,46.726 377.427,45.726 382.5,45.5 Z"/></g>
<g><path style="opacity:0.388" fill="#b34444" d="M 365.5,48.5 C 358.648,49.6903 351.648,50.6903 344.5,51.5C 345.694,50.2227 347.36,49.5561 349.5,49.5C 354.813,48.8048 360.146,48.4715 365.5,48.5 Z"/></g>
<g><path style="opacity:0.004" fill="#fdfefd" d="M 695.5,123.5 C 696.833,123.5 697.5,124.167 697.5,125.5C 696.5,125.167 695.833,124.5 695.5,123.5 Z"/></g>
<g><path style="opacity:0.482" fill="#b03f40" d="M 337.5,285.5 C 323.598,286.183 309.598,286.849 295.5,287.5C 295.389,286.883 295.056,286.383 294.5,286C 305.527,285.79 316.527,285.29 327.5,284.5C 330.783,285.327 334.116,285.66 337.5,285.5 Z"/></g>
<g><path style="opacity:0.243" fill="#b04143" d="M 654.5,299.5 C 655.638,302.304 655.805,305.304 655,308.5C 651.606,309.456 648.106,309.789 644.5,309.5C 647.563,308.799 650.73,308.132 654,307.5C 654.497,304.854 654.664,302.187 654.5,299.5 Z"/></g>
<g><path style="opacity:0.525" fill="#ac3538" d="M 1510.5,323.5 C 1496.49,322.184 1482.49,322.184 1468.5,323.5C 1468.61,322.883 1468.94,322.383 1469.5,322C 1482.5,321.333 1495.5,321.333 1508.5,322C 1509.42,322.278 1510.08,322.778 1510.5,323.5 Z"/></g>
<g><path style="opacity:1" fill="#970406" d="M 1510.5,323.5 C 1548.53,326.762 1576.53,344.429 1594.5,376.5C 1600.12,389.648 1604.46,402.982 1607.5,416.5C 1607.22,422.417 1607.88,428.084 1609.5,433.5C 1609.22,435.415 1609.55,437.081 1610.5,438.5C 1610.49,441.545 1610.16,444.545 1609.5,447.5C 1609.5,449.5 1609.5,451.5 1609.5,453.5C 1607.98,458.618 1606.98,463.951 1606.5,469.5C 1606.5,470.5 1606.5,471.5 1606.5,472.5C 1604.88,475.888 1603.88,479.554 1603.5,483.5C 1593.72,523.121 1568.55,548.455 1528,559.5C 1524.2,560.205 1520.36,560.538 1516.5,560.5C 1502.91,562.071 1489.24,562.737 1475.5,562.5C 1437.87,557.953 1409.7,539.953 1391,508.5C 1383.72,493.391 1379.55,477.725 1378.5,461.5C 1377.19,448.179 1377.19,434.846 1378.5,421.5C 1384.43,371.571 1411.43,339.238 1459.5,324.5C 1462.47,323.838 1465.47,323.505 1468.5,323.5C 1482.49,322.184 1496.49,322.184 1510.5,323.5 Z M 1479.5,351.5 C 1488.53,351.284 1497.53,351.617 1506.5,352.5C 1518.69,356.072 1528.36,363.072 1535.5,373.5C 1537.88,378.818 1540.55,383.984 1543.5,389C 1542.48,390.049 1542.32,391.216 1543,392.5C 1543.33,392.167 1543.67,391.833 1544,391.5C 1546.41,401.263 1548.58,410.93 1550.5,420.5C 1550.5,436.167 1550.5,451.833 1550.5,467.5C 1549.11,474.369 1547.61,481.369 1546,488.5C 1542.04,498.533 1536.7,508.2 1530,517.5C 1522.97,526.159 1513.8,530.992 1502.5,532C 1479.5,536.569 1462,529.069 1450,509.5C 1441.95,494.776 1437.29,479.109 1436,462.5C 1433.44,436.937 1435.94,412.104 1443.5,388C 1446.14,381.891 1449.14,376.057 1452.5,370.5C 1456.48,366.188 1460.81,362.188 1465.5,358.5C 1470.27,356.162 1474.94,353.829 1479.5,351.5 Z"/></g>
<g><path style="opacity:1" fill="#960205" d="M 1058.5,354.5 C 1057.67,359.985 1057.17,365.652 1057,371.5C 1056.33,418.833 1056.33,466.167 1057,513.5C 1057.17,519.348 1057.67,525.015 1058.5,530.5C 1059.78,531.749 1060.78,533.249 1061.5,535C 1067.54,537.252 1072.88,540.585 1077.5,545C 1078.54,548.121 1078.7,551.287 1078,554.5C 1077.28,556.056 1076.11,557.056 1074.5,557.5C 1044.24,558.492 1013.91,558.825 983.5,558.5C 978.203,552.578 978.203,546.745 983.5,541C 990.62,539.425 995.953,535.592 999.5,529.5C 1000.17,505.836 1000.5,482.002 1000.5,458C 1000.68,422.654 1000.01,387.487 998.5,352.5C 997.209,352.737 996.209,352.404 995.5,351.5C 993.626,350.715 991.626,350.048 989.5,349.5C 982.22,350.641 974.22,351.975 965.5,353.5C 957.054,359.445 949.721,366.612 943.5,375C 941.163,376.341 938.663,377.174 936,377.5C 933.41,377.055 930.91,376.389 928.5,375.5C 928.5,374.5 928.5,373.5 928.5,372.5C 927.222,367.865 927.222,363.198 928.5,358.5C 932.206,345.731 938.873,334.231 948.5,324C 1000.83,323.333 1053.17,323.333 1105.5,324C 1116.74,330.624 1123.74,339.958 1126.5,352C 1129.44,356.309 1131.1,361.142 1131.5,366.5C 1130.51,372.991 1126.85,376.491 1120.5,377C 1111.39,372.517 1104.55,366.35 1100,358.5C 1086.73,351.195 1072.89,349.861 1058.5,354.5 Z"/></g>
<g><path style="opacity:1" fill="#960105" d="M 1216.5,353.5 C 1215.19,371.834 1215.19,390.168 1216.5,408.5C 1216.9,410.662 1218.23,411.995 1220.5,412.5C 1241.83,413.833 1263.17,413.833 1284.5,412.5C 1286.26,409.788 1286.93,406.788 1286.5,403.5C 1287.4,402.71 1288.07,401.71 1288.5,400.5C 1288.5,391.5 1288.5,382.5 1288.5,373.5C 1288.5,373.167 1288.5,372.833 1288.5,372.5C 1287.77,365.2 1287.27,357.867 1287,350.5C 1286.62,349.944 1286.12,349.611 1285.5,349.5C 1280.77,345.466 1275.43,342.466 1269.5,340.5C 1267.68,338.337 1266.68,335.837 1266.5,333C 1266.48,329.927 1267.15,327.093 1268.5,324.5C 1299.49,323.432 1330.49,323.266 1361.5,324C 1363.17,325.506 1364.17,327.339 1364.5,329.5C 1365.06,333.666 1364.06,337.332 1361.5,340.5C 1357.38,343.062 1353.05,345.395 1348.5,347.5C 1347.48,348.901 1346.48,350.235 1345.5,351.5C 1342.84,411.5 1342.84,471.5 1345.5,531.5C 1348.46,535.023 1352.29,537.356 1357,538.5C 1361.61,541.023 1364.77,544.69 1366.5,549.5C 1365.67,551.828 1364.84,554.162 1364,556.5C 1363.33,557.252 1362.5,557.586 1361.5,557.5C 1331.5,558.833 1301.5,558.833 1271.5,557.5C 1269.62,557.288 1268.28,556.288 1267.5,554.5C 1265.42,547.889 1267.42,542.889 1273.5,539.5C 1276.8,537.914 1280.13,536.414 1283.5,535C 1284.16,533.482 1285.16,532.315 1286.5,531.5C 1287.36,525.996 1288.03,520.329 1288.5,514.5C 1288.5,496.5 1288.5,478.5 1288.5,460.5C 1288.5,460.167 1288.5,459.833 1288.5,459.5C 1287.6,454.572 1287.26,449.906 1287.5,445.5C 1286.45,444.122 1285.12,443.122 1283.5,442.5C 1262.83,439.833 1242.17,439.833 1221.5,442.5C 1220.07,443.082 1218.74,443.915 1217.5,445C 1216.75,445.671 1216.41,446.504 1216.5,447.5C 1215.05,475.841 1215.22,504.174 1217,532.5C 1217.38,533.056 1217.88,533.389 1218.5,533.5C 1221.85,535.257 1225.35,536.924 1229,538.5C 1232.03,540.367 1234.53,542.7 1236.5,545.5C 1236.7,547.95 1236.37,550.283 1235.5,552.5C 1235.92,554.781 1235.26,556.448 1233.5,557.5C 1204.2,558.826 1174.86,558.826 1145.5,557.5C 1143.5,557.5 1141.5,557.5 1139.5,557.5C 1139.5,555.833 1139.5,554.167 1139.5,552.5C 1138.17,550.5 1138.17,548.5 1139.5,546.5C 1139.28,545.325 1139.61,544.325 1140.5,543.5C 1146.8,540.105 1152.64,536.105 1158,531.5C 1158.67,471.5 1158.67,411.5 1158,351.5C 1152.89,346.227 1147.06,341.893 1140.5,338.5C 1139.61,337.675 1139.28,336.675 1139.5,335.5C 1138.59,334.036 1138.59,332.702 1139.5,331.5C 1139.05,328.635 1139.72,326.135 1141.5,324C 1172.17,323.333 1202.83,323.333 1233.5,324C 1236.63,328.004 1237.79,332.504 1237,337.5C 1232.5,341.668 1227.33,344.834 1221.5,347C 1219.46,348.926 1217.79,351.093 1216.5,353.5 Z"/></g>
<g><path style="opacity:1" fill="#960306" d="M 1764.5,391.5 C 1765.83,391.5 1766.5,390.833 1766.5,389.5C 1775.65,373.578 1784.48,357.911 1793,342.5C 1798.97,335.596 1805.14,329.596 1811.5,324.5C 1832.12,323.345 1852.79,323.179 1873.5,324C 1875.71,326.282 1877.38,328.949 1878.5,332C 1877.26,333.651 1876.42,335.485 1876,337.5C 1871.51,340.49 1867.01,343.49 1862.5,346.5C 1860.88,347.933 1859.54,349.599 1858.5,351.5C 1857.17,411.5 1857.17,471.5 1858.5,531.5C 1863.6,536.224 1869.26,540.224 1875.5,543.5C 1876.45,545.045 1876.79,546.712 1876.5,548.5C 1876.83,549.167 1877.17,549.833 1877.5,550.5C 1877.19,553.489 1875.85,555.822 1873.5,557.5C 1843.14,558.826 1812.8,558.826 1782.5,557.5C 1780.82,556.817 1780.16,555.483 1780.5,553.5C 1779.17,550.833 1779.17,548.167 1780.5,545.5C 1784.74,541.126 1789.74,537.626 1795.5,535C 1796.56,532.661 1797.89,530.495 1799.5,528.5C 1799.65,487.617 1799.48,446.617 1799,405.5C 1789.94,420.326 1780.44,434.659 1770.5,448.5C 1761.43,463.754 1750.26,477.42 1737,489.5C 1730.65,483.649 1724.48,477.649 1718.5,471.5C 1702.61,449.679 1686.11,427.679 1669,405.5C 1668.17,446.504 1668.33,487.504 1669.5,528.5C 1672.09,534.067 1676.43,537.734 1682.5,539.5C 1684.65,541.53 1686.65,543.53 1688.5,545.5C 1688.5,547.5 1688.5,549.5 1688.5,551.5C 1688.61,554.216 1687.61,556.216 1685.5,557.5C 1663.58,558.489 1641.58,558.822 1619.5,558.5C 1615.37,555.625 1613.87,551.625 1615,546.5C 1621.18,540.857 1627.68,535.857 1634.5,531.5C 1635.12,531.389 1635.62,531.056 1636,530.5C 1636.5,520.172 1636.67,509.839 1636.5,499.5C 1636.82,450.49 1636.32,401.49 1635,352.5C 1633.36,349.689 1631.19,347.356 1628.5,345.5C 1623.95,344.282 1619.79,342.282 1616,339.5C 1615.75,337.567 1615.25,335.734 1614.5,334C 1616.24,330.533 1618.24,327.2 1620.5,324C 1636.83,323.333 1653.17,323.333 1669.5,324C 1677.88,330.699 1684.88,338.032 1690.5,346C 1708.61,370.59 1726.78,395.09 1745,419.5C 1753.1,411.262 1759.6,401.929 1764.5,391.5 Z"/></g>
<g><path style="opacity:1" fill="#960206" d="M 2022.5,351.5 C 2020.34,350.593 2018.01,349.927 2015.5,349.5C 2001.48,349.167 1987.48,349.501 1973.5,350.5C 1971.82,351.15 1970.48,352.15 1969.5,353.5C 1968.69,355.631 1968.19,357.964 1968,360.5C 1967.17,375.672 1967.34,390.672 1968.5,405.5C 1969.17,405.833 1969.83,406.167 1970.5,406.5C 1974.03,408.423 1978.03,409.089 1982.5,408.5C 1993.17,408.333 2003.84,408.5 2014.5,409C 2025.25,414.581 2028.25,423.081 2023.5,434.5C 2021.92,436.585 2019.92,438.085 2017.5,439C 2012.51,439.499 2007.51,439.666 2002.5,439.5C 1992.04,440.121 1981.7,440.788 1971.5,441.5C 1969.8,443.8 1969.13,446.467 1969.5,449.5C 1968.78,449.918 1968.28,450.584 1968,451.5C 1967.17,477.337 1967.34,503.003 1968.5,528.5C 1971,530.871 1974,531.871 1977.5,531.5C 1988.14,532.88 1998.97,533.547 2010,533.5C 2018.07,533.721 2025.9,533.055 2033.5,531.5C 2037.97,527.763 2042.63,524.263 2047.5,521C 2052.26,517.285 2056.59,513.118 2060.5,508.5C 2065.84,505.343 2070.5,506.01 2074.5,510.5C 2074.5,514.833 2074.5,519.167 2074.5,523.5C 2073.6,524.209 2073.26,525.209 2073.5,526.5C 2071.62,527.895 2070.62,529.895 2070.5,532.5C 2067.93,541.066 2063.6,548.566 2057.5,555C 2057.83,555.333 2058.17,555.667 2058.5,556C 2051.95,557.42 2045.28,557.92 2038.5,557.5C 1991.83,558.833 1945.17,558.833 1898.5,557.5C 1895.88,557.768 1893.38,557.435 1891,556.5C 1889.28,552.205 1889.11,547.872 1890.5,543.5C 1895.06,539.959 1900.73,537.125 1907.5,535C 1908.13,534.25 1908.63,533.416 1909,532.5C 1909.67,472.167 1909.67,411.833 1909,351.5C 1903.75,345.799 1897.59,341.466 1890.5,338.5C 1889.02,333.384 1889.69,328.55 1892.5,324C 1943.83,323.333 1995.17,323.333 2046.5,324C 2056.54,332.902 2062.54,344.069 2064.5,357.5C 2064.25,361.871 2062.92,365.871 2060.5,369.5C 2058.4,371.534 2056.07,371.868 2053.5,370.5C 2044.09,363.681 2033.76,357.347 2022.5,351.5 Z"/></g>
<g><path style="opacity:0.027" fill="#c97270" d="M 1139.5,331.5 C 1138.59,332.702 1138.59,334.036 1139.5,335.5C 1138.35,335.209 1137.68,334.376 1137.5,333C 1137.32,330.641 1137.99,330.141 1139.5,331.5 Z"/></g>
<g><path style="opacity:0.027" fill="#bc5753" d="M 1364.5,329.5 C 1365.12,329.611 1365.62,329.944 1366,330.5C 1367.35,335.264 1365.85,338.597 1361.5,340.5C 1364.06,337.332 1365.06,333.666 1364.5,329.5 Z"/></g>
<g><path style="opacity:0.059" fill="#bc5b5c" d="M 989.5,349.5 C 991.626,350.048 993.626,350.715 995.5,351.5C 993.143,351.663 990.81,351.497 988.5,351C 989.056,350.617 989.389,350.117 989.5,349.5 Z"/></g>
<g><path style="opacity:0.141" fill="#b14345" d="M 1479.5,351.5 C 1487.32,350.344 1495.32,350.177 1503.5,351C 1504.74,351.232 1505.74,351.732 1506.5,352.5C 1497.53,351.617 1488.53,351.284 1479.5,351.5 Z"/></g>
<g><path style="opacity:0.031" fill="#bb595a" d="M 2015.5,349.5 C 2018.01,349.927 2020.34,350.593 2022.5,351.5C 2019.61,352.01 2017.28,351.344 2015.5,349.5 Z"/></g>
<g><path style="opacity:0.141" fill="#b24547" d="M 1285.5,349.5 C 1286.12,349.611 1286.62,349.944 1287,350.5C 1287.27,357.867 1287.77,365.2 1288.5,372.5C 1287.83,371.833 1287.17,371.167 1286.5,370.5C 1286.76,363.443 1286.43,356.443 1285.5,349.5 Z"/></g>
<g><path style="opacity:0.22" fill="#b14245" d="M 928.5,358.5 C 927.222,363.198 927.222,367.865 928.5,372.5C 927.2,370.777 926.533,368.61 926.5,366C 926.667,363.833 926.833,361.667 927,359.5C 927.383,358.944 927.883,358.611 928.5,358.5 Z"/></g>
<g><path style="opacity:0.004" fill="#fdfffd" d="M 1286.5,370.5 C 1287.17,371.167 1287.83,371.833 1288.5,372.5C 1288.5,372.833 1288.5,373.167 1288.5,373.5C 1287.78,373.918 1287.28,374.584 1287,375.5C 1286.51,373.866 1286.34,372.199 1286.5,370.5 Z"/></g>
<g><path style="opacity:0.569" fill="#c86c65" d="M 1216.5,353.5 C 1217.83,371.833 1217.83,390.167 1216.5,408.5C 1215.19,390.168 1215.19,371.834 1216.5,353.5 Z"/></g>
<g><path style="opacity:0.165" fill="#af3f42" d="M 1969.5,353.5 C 1968.62,370.817 1968.29,388.15 1968.5,405.5C 1967.34,390.672 1967.17,375.672 1968,360.5C 1968.19,357.964 1968.69,355.631 1969.5,353.5 Z"/></g>
<g><path style="opacity:0.004" fill="#fdfffd" d="M 1766.5,389.5 C 1766.5,390.833 1765.83,391.5 1764.5,391.5C 1764.83,390.5 1765.5,389.833 1766.5,389.5 Z"/></g>
<g><path style="opacity:0.055" fill="#bf5d5c" d="M 698.5,397.5 C 700.408,398.486 701.408,400.152 701.5,402.5C 699.75,401.341 698.75,399.674 698.5,397.5 Z"/></g>
<g><path style="opacity:0.004" fill="#fdfffd" d="M 1288.5,400.5 C 1288.07,401.71 1287.4,402.71 1286.5,403.5C 1286.34,401.801 1286.51,400.134 1287,398.5C 1287.28,399.416 1287.78,400.082 1288.5,400.5 Z"/></g>
<g><path style="opacity:0.059" fill="#c76f6d" d="M 1970.5,406.5 C 1974.6,407.109 1978.6,407.775 1982.5,408.5C 1978.03,409.089 1974.03,408.423 1970.5,406.5 Z"/></g>
<g><path style="opacity:0.686" fill="#a82e2f" d="M 1345.5,351.5 C 1344.17,411.5 1344.17,471.5 1345.5,531.5C 1342.84,471.5 1342.84,411.5 1345.5,351.5 Z"/></g>
<g><path style="opacity:0.385" fill="#af3d3f" d="M 998.5,352.5 C 1000.01,387.487 1000.68,422.654 1000.5,458C 1000.5,482.002 1000.17,505.836 999.5,529.5C 999.663,470.496 999.33,411.496 998.5,352.5 Z"/></g>
<g><path style="opacity:0.502" fill="#b24342" d="M 1607.5,416.5 C 1608.74,421.96 1609.4,427.627 1609.5,433.5C 1607.88,428.084 1607.22,422.417 1607.5,416.5 Z"/></g>
<g><path style="opacity:0.216" fill="#bb5656" d="M 1378.5,421.5 C 1377.19,434.846 1377.19,448.179 1378.5,461.5C 1377.17,455.202 1376.5,448.535 1376.5,441.5C 1376.5,434.465 1377.17,427.798 1378.5,421.5 Z"/></g>
<g><path style="opacity:0.192" fill="#b54a4b" d="M 1550.5,420.5 C 1552.68,436.136 1552.68,451.802 1550.5,467.5C 1550.5,451.833 1550.5,436.167 1550.5,420.5 Z"/></g>
<g><path style="opacity:0.165" fill="#b85152" d="M 2002.5,439.5 C 2002.61,440.117 2002.94,440.617 2003.5,441C 1992.84,441.5 1982.17,441.667 1971.5,441.5C 1981.7,440.788 1992.04,440.121 2002.5,439.5 Z"/></g>
<g><path style="opacity:0.637" fill="#ba534e" d="M 1283.5,442.5 C 1262.67,441.247 1242,441.247 1221.5,442.5C 1242.17,439.833 1262.83,439.833 1283.5,442.5 Z"/></g>
<g><path style="opacity:0.027" fill="#cc7a78" d="M 1610.5,438.5 C 1611.63,440.966 1611.8,443.633 1611,446.5C 1610.62,447.056 1610.12,447.389 1609.5,447.5C 1610.16,444.545 1610.49,441.545 1610.5,438.5 Z"/></g>
<g><path style="opacity:0.004" fill="#fdfffd" d="M 1770.5,448.5 C 1771.83,449.167 1771.83,449.167 1770.5,448.5 Z"/></g>
<g><path style="opacity:0.027" fill="#b54d50" d="M 1287.5,445.5 C 1287.26,449.906 1287.6,454.572 1288.5,459.5C 1287.83,458.833 1287.17,458.167 1286.5,457.5C 1286.18,453.298 1286.52,449.298 1287.5,445.5 Z"/></g>
<g><path style="opacity:0.004" fill="#fdfffd" d="M 1286.5,457.5 C 1287.17,458.167 1287.83,458.833 1288.5,459.5C 1288.5,459.833 1288.5,460.167 1288.5,460.5C 1287.68,462.969 1287.18,465.635 1287,468.5C 1286.5,464.848 1286.33,461.182 1286.5,457.5 Z"/></g>
<g><path style="opacity:0.459" fill="#b44847" d="M 1609.5,453.5 C 1609.11,458.504 1608.61,463.504 1608,468.5C 1607.62,469.056 1607.12,469.389 1606.5,469.5C 1606.98,463.951 1607.98,458.618 1609.5,453.5 Z"/></g>
<g><path style="opacity:0.498" fill="#b1403f" d="M 1058.5,354.5 C 1057.17,413.167 1057.17,471.833 1058.5,530.5C 1057.67,525.015 1057.17,519.348 1057,513.5C 1056.33,466.167 1056.33,418.833 1057,371.5C 1057.17,365.652 1057.67,359.985 1058.5,354.5 Z"/></g>
<g><path style="opacity:0.027" fill="#c1625f" d="M 1606.5,472.5 C 1606.11,475.839 1605.61,479.173 1605,482.5C 1604.62,483.056 1604.12,483.389 1603.5,483.5C 1603.88,479.554 1604.88,475.888 1606.5,472.5 Z"/></g>
<g><path style="opacity:0.569" fill="#c76c65" d="M 1216.5,447.5 C 1217.18,476.039 1217.85,504.706 1218.5,533.5C 1217.88,533.389 1217.38,533.056 1217,532.5C 1215.22,504.174 1215.05,475.841 1216.5,447.5 Z"/></g>
<g><path style="opacity:0.243" fill="#af3e41" d="M 1969.5,449.5 C 1968.54,475.808 1968.2,502.141 1968.5,528.5C 1967.34,503.003 1967.17,477.337 1968,451.5C 1968.28,450.584 1968.78,449.918 1969.5,449.5 Z"/></g>
<g><path style="opacity:0.027" fill="#bf5e5d" d="M 827.5,515.5 C 829.28,516.99 829.946,518.99 829.5,521.5C 828.262,519.786 827.595,517.786 827.5,515.5 Z"/></g>
<g><path style="opacity:0.027" fill="#cd7c7a" d="M 1288.5,514.5 C 1288.03,520.329 1287.36,525.996 1286.5,531.5C 1286.33,523.493 1286.5,515.493 1287,507.5C 1287.19,510.036 1287.69,512.369 1288.5,514.5 Z"/></g>
<g><path style="opacity:0.294" fill="#b04043" d="M 1636.5,499.5 C 1636.67,509.839 1636.5,520.172 1636,530.5C 1635.62,531.056 1635.12,531.389 1634.5,531.5C 1635.12,520.704 1635.79,510.037 1636.5,499.5 Z"/></g>
<g><path style="opacity:0.086" fill="#bf5f5d" d="M 2073.5,526.5 C 2073.09,528.887 2072.09,530.887 2070.5,532.5C 2070.62,529.895 2071.62,527.895 2073.5,526.5 Z"/></g>
<g><path style="opacity:0.418" fill="#aa3134" d="M 1977.5,531.5 C 1996.17,532.652 2014.84,532.652 2033.5,531.5C 2025.9,533.055 2018.07,533.721 2010,533.5C 1998.97,533.547 1988.14,532.88 1977.5,531.5 Z"/></g>
<g><path style="opacity:0.141" fill="#bd5a5a" d="M 1235.5,552.5 C 1236.37,550.283 1236.7,547.95 1236.5,545.5C 1237.64,547.375 1237.8,550.042 1237,553.5C 1236.62,552.944 1236.12,552.611 1235.5,552.5 Z"/></g>
<g><path style="opacity:0.216" fill="#d0817d" d="M 1688.5,545.5 C 1691.17,547.5 1691.17,549.5 1688.5,551.5C 1688.5,549.5 1688.5,547.5 1688.5,545.5 Z"/></g>
<g><path style="opacity:0.09" fill="#be5e5e" d="M 1780.5,545.5 C 1779.17,548.167 1779.17,550.833 1780.5,553.5C 1779.25,552.666 1778.59,551.333 1778.5,549.5C 1778.59,547.667 1779.25,546.334 1780.5,545.5 Z"/></g>
<g><path style="opacity:0.004" fill="#fdfffd" d="M 1876.5,548.5 C 1878.42,548.711 1878.76,549.377 1877.5,550.5C 1877.17,549.833 1876.83,549.167 1876.5,548.5 Z"/></g>
<g><path style="opacity:0.243" fill="#c36867" d="M 1139.5,546.5 C 1138.17,548.5 1138.17,550.5 1139.5,552.5C 1138.35,552.209 1137.68,551.376 1137.5,550C 1137.39,548.301 1138.05,547.134 1139.5,546.5 Z"/></g>
<g><path style="opacity:0.165" fill="#b14447" d="M 1074.5,557.5 C 1059.68,558.833 1044.52,559.499 1029,559.5C 1013.66,559.5 998.496,559.167 983.5,558.5C 1013.91,558.825 1044.24,558.492 1074.5,557.5 Z"/></g>
<g><path style="opacity:0.114" fill="#b4494b" d="M 1145.5,557.5 C 1174.86,558.826 1204.2,558.826 1233.5,557.5C 1219.02,558.833 1204.18,559.499 1189,559.5C 1174.17,559.333 1159.33,559.167 1144.5,559C 1145.06,558.617 1145.39,558.117 1145.5,557.5 Z"/></g>
<g><path style="opacity:0.165" fill="#b24548" d="M 1271.5,557.5 C 1301.5,558.833 1331.5,558.833 1361.5,557.5C 1361.61,558.117 1361.94,558.617 1362.5,559C 1331.83,559.667 1301.17,559.667 1270.5,559C 1271.06,558.617 1271.39,558.117 1271.5,557.5 Z"/></g>
<g><path style="opacity:0.165" fill="#b24547" d="M 1685.5,557.5 C 1674.69,558.832 1663.52,559.499 1652,559.5C 1640.43,559.511 1629.59,559.178 1619.5,558.5C 1641.58,558.822 1663.58,558.489 1685.5,557.5 Z"/></g>
<g><path style="opacity:0.165" fill="#b24447" d="M 1782.5,557.5 C 1812.8,558.826 1843.14,558.826 1873.5,557.5C 1858.68,558.833 1843.52,559.499 1828,559.5C 1812.48,559.499 1797.32,558.833 1782.5,557.5 Z"/></g>
<g><path style="opacity:0.165" fill="#b54b4d" d="M 1898.5,557.5 C 1945.17,558.833 1991.83,558.833 2038.5,557.5C 2038.61,558.117 2038.94,558.617 2039.5,559C 1991.83,559.667 1944.17,559.667 1896.5,559C 1897.42,558.722 1898.08,558.222 1898.5,557.5 Z"/></g>
<g><path style="opacity:0.271" fill="#b44748" d="M 1516.5,560.5 C 1512.27,562.28 1507.61,563.114 1502.5,563C 1493.32,563.824 1484.32,563.657 1475.5,562.5C 1489.24,562.737 1502.91,562.071 1516.5,560.5 Z"/></g>
<g><path style="opacity:0.127" fill="#ac4243" d="M 15.5,627.5 C 15.2436,629.792 15.5769,631.959 16.5,634C 19.0356,634.186 21.369,634.686 23.5,635.5C 20.5,635.5 17.5,635.5 14.5,635.5C 14.1936,632.615 14.5269,629.948 15.5,627.5 Z"/></g>
<g><path style="opacity:0.027" fill="#b95150" d="M 650.5,807.5 C 650.611,808.117 650.944,808.617 651.5,809C 645.173,809.651 638.84,810.151 632.5,810.5C 638.335,809.216 644.335,808.216 650.5,807.5 Z"/></g>
</svg>
