<?xml version="1.0" encoding="UTF-8"?>
<svg version="1.1" xmlns="http://www.w3.org/2000/svg" width="683" height="231">
<path d="M0 0 C8.07080034 6.45358893 12.80277251 15.06974058 16.875 24.375 C17.32037109 25.35017578 17.76574219 26.32535156 18.22460938 27.33007812 C21.4375 34.52083333 21.4375 34.52083333 21.4375 39.0625 C19.93359375 40.7734375 19.93359375 40.7734375 17.875 42.4375 C17.14925781 43.03433594 16.42351562 43.63117187 15.67578125 44.24609375 C14.93714844 44.84550781 14.19851562 45.44492187 13.4375 46.0625 C11.58199845 47.70266288 9.73210162 49.34893623 7.8828125 50.99609375 C6.4375 52.0625 6.4375 52.0625 4.4375 52.0625 C3.74820716 61.96151109 5.41064273 70.06698449 11.4375 78.0625 C11.4375 78.7225 11.4375 79.3825 11.4375 80.0625 C10.4475 80.3925 9.4575 80.7225 8.4375 81.0625 C7.70426204 83.07758358 7.70426204 83.07758358 7.4375 85.0625 C5.7875 85.0625 4.1375 85.0625 2.4375 85.0625 C2.1075 87.7025 1.7775 90.3425 1.4375 93.0625 C2.39011719 93.72636719 3.34273437 94.39023438 4.32421875 95.07421875 C5.59132743 95.96588782 6.85824436 96.85782944 8.125 97.75 C8.75083984 98.18505859 9.37667969 98.62011719 10.02148438 99.06835938 C14.72735394 102.39449755 18.79841268 105.88396622 22.2890625 110.5234375 C25.0915826 113.83550671 28.31075162 116.15583339 31.8125 118.6875 C33.24143584 119.74665364 34.66980968 120.80656587 36.09765625 121.8671875 C38.22729827 123.43930419 40.35997273 125.00631975 42.50341797 126.55957031 C44.43160021 127.96093971 46.34159526 129.3843695 48.25 130.8125 C48.82991699 131.22322754 49.40983398 131.63395508 50.00732422 132.05712891 C54.33682396 135.33556608 56.31805965 138.84328252 57.4375 144.0625 C57.22259581 147.28606288 56.80461104 149.99500745 55.75683594 153.04174805 C55.244715 155.07415564 55.244715 155.07415564 56.25097656 156.83911133 C56.68893555 157.4348999 57.12689453 158.03068848 57.578125 158.64453125 C58.06708252 159.32233643 58.55604004 160.0001416 59.05981445 160.69848633 C59.59695068 161.41673584 60.13408691 162.13498535 60.6875 162.875 C61.22656982 163.61967529 61.76563965 164.36435059 62.32104492 165.1315918 C65.07152777 168.91796557 67.8824913 172.65559341 70.72265625 176.375 C71.2321582 177.04942139 71.74166016 177.72384277 72.26660156 178.41870117 C73.23942033 179.70164995 74.22413078 180.97568626 75.22167969 182.23950195 C78.48025951 186.52701247 78.48025951 186.52701247 78.2746582 189.10180664 C77.2225938 191.56582799 76.236399 192.1795335 73.9296875 193.5078125 C73.19806396 193.93964844 72.46644043 194.37148437 71.71264648 194.81640625 C70.92059814 195.26886719 70.1285498 195.72132813 69.3125 196.1875 C67.65345609 197.16674776 65.99592412 198.14856117 64.33984375 199.1328125 C63.50952637 199.62426758 62.67920898 200.11572266 61.82373047 200.62207031 C58.4362759 202.66688123 55.15344954 204.84871306 51.875 207.0625 C51.26470947 207.4637207 50.65441895 207.86494141 50.02563477 208.27832031 C46.81212314 210.40071304 43.72889186 212.59885396 40.7109375 214.9921875 C28.23309756 224.4936763 14.81311636 226.04918204 -0.5625 227.0625 C-1.60583496 227.16900879 -2.64916992 227.27551758 -3.72412109 227.38525391 C-15.72016612 228.11190446 -26.57535206 223.77827542 -37.8125 220.0625 C-39.96573382 219.3666999 -42.11962888 218.67294286 -44.27416992 217.98120117 C-48.48359337 216.62792218 -52.68994875 215.26573612 -56.89404297 213.89599609 C-64.82565861 211.31940418 -72.80265018 208.90197625 -80.78808594 206.49804688 C-85.1353923 205.17420168 -89.41331286 203.76595783 -93.66796875 202.16796875 C-98.12165019 200.52180578 -102.62170921 199.13286274 -107.18359375 197.82421875 C-119.888284 194.1680589 -132.40598381 189.91874082 -144.95776367 185.7746582 C-148.19113999 184.7081419 -151.42561048 183.64499452 -154.66015625 182.58203125 C-155.63735123 182.25805862 -156.6145462 181.934086 -157.62135315 181.60029602 C-162.89879824 179.86664381 -168.15442836 178.33365345 -173.5625 177.0625 C-172.4943153 171.94884986 -171.33142524 166.99022031 -169.5625 162.0625 C-170.696875 161.464375 -171.83125 160.86625 -173 160.25 C-176.4375 158.4375 -176.4375 158.4375 -177.5625 155.0625 C-177.95167542 151.60554504 -177.95167542 151.60554504 -177.5625 148.0625 C-175.37242126 146.0500946 -175.37242126 146.0500946 -172.33569336 144.3737793 C-164.91739085 139.84450959 -159.25144251 134.2625067 -153.19140625 128.08203125 C-152.0555704 126.93870759 -150.9188278 125.79628413 -149.78123474 124.65470886 C-146.82005913 121.67843043 -143.87109289 118.69034862 -140.92474365 115.69940186 C-137.92398586 112.65753082 -134.91171994 109.62710274 -131.90039062 106.59570312 C-126.61018505 101.26746147 -121.32998615 95.92948402 -116.05714417 90.58406067 C-115.23391159 89.75194565 -114.41067902 88.91983063 -113.5625 88.0625 C-112.22293495 86.70368965 -112.22293495 86.70368965 -110.85630798 85.31742859 C-104.11997945 78.69527891 -94.57575073 76.97475 -85.375 76.9375 C-84.446875 76.97875 -83.51875 77.02 -82.5625 77.0625 C-82.58957619 71.21404312 -83.47271077 66.75733414 -87.21875 62.17578125 C-91.60232714 58.22325586 -96.71202711 55.3394076 -101.78515625 52.359375 C-104.93650243 50.47609102 -107.89473031 48.61249867 -110.5625 46.0625 C-111.2742355 40.54654988 -110.84533617 36.7220094 -107.5625 32.0625 C-104.83716051 30.0311127 -102.06132898 28.0625 -98.5625 28.0625 C-98.459375 27.340625 -98.35625 26.61875 -98.25 25.875 C-96.88558583 20.29330566 -93.92524242 16.76122095 -89.359375 13.4140625 C-84.9122656 11.26504036 -80.24414688 10.65904486 -75.37841797 9.99951172 C-71.02022723 9.5440646 -71.02022723 9.5440646 -67.5625 7.0625 C-65.03136317 6.72013814 -62.54189029 6.46081619 -60 6.25 C-54.91103044 5.75566231 -51.03730855 5.20453487 -46.6875 2.3125 C-43.14213069 -0.00434209 -43.14213069 -0.00434209 -40.29296875 0.32421875 C-38.65447098 0.78215108 -37.01646365 1.24184122 -35.37890625 1.703125 C-30.57188339 2.31650378 -26.38855565 0.60665646 -21.859375 -0.89453125 C-14.11134972 -3.34562456 -6.83107077 -5.03036334 0 0 Z " fill="#FDFDFD" transform="translate(226.5625,2.9375)"/>
<path d="M0 0 C2.35804016 -0.19119245 4.70036768 -0.32841001 7.0625 -0.4375 C8.37347656 -0.51871094 9.68445313 -0.59992188 11.03515625 -0.68359375 C15.42358699 -0.37700183 17.46992521 1.71774905 20.3190918 4.90795898 C23.14889234 8.42989956 25.81095036 12.03050521 28.375 15.75 C29.17357422 16.88115234 29.17357422 16.88115234 29.98828125 18.03515625 C33.86106179 23.58318537 33.86106179 23.58318537 35 27 C35.66 27 36.32 27 37 27 C37.27996826 26.43087891 37.55993652 25.86175781 37.84838867 25.27539062 C39.87201109 21.27705249 42.10002955 17.3960635 44.3125 13.5 C44.78623047 12.64535156 45.25996094 11.79070312 45.74804688 10.91015625 C50.68636852 2.24951556 50.68636852 2.24951556 55 0 C58.12813777 -0.44104868 61.16191394 -0.37930582 64.3125 -0.25 C65.56643555 -0.22292969 65.56643555 -0.22292969 66.84570312 -0.1953125 C68.89763228 -0.14841126 70.94896756 -0.07667411 73 0 C73.495 1.98 73.495 1.98 74 4 C73.18869629 4.42474609 72.37739258 4.84949219 71.54150391 5.28710938 C67.57671445 9.51926503 68.28356886 13.80587961 68.3359375 19.40625 C68.33115387 20.52310181 68.32637024 21.63995361 68.32144165 22.79064941 C68.31804055 25.15097462 68.32725749 27.51134679 68.34814453 29.87158203 C68.3749043 33.4870698 68.34840086 37.09945269 68.31640625 40.71484375 C68.31971031 43.00781936 68.32611645 45.30079304 68.3359375 47.59375 C68.32581635 48.67611938 68.31569519 49.75848877 68.30526733 50.87365723 C68.26333322 56.89741438 68.26333322 56.89741438 71.54150391 61.71289062 C72.35280762 62.13763672 73.16411133 62.56238281 74 63 C73.505 64.98 73.505 64.98 73 67 C64.09 67 55.18 67 46 67 C45.67 65.68 45.34 64.36 45 63 C45.8149292 62.49243164 46.6298584 61.98486328 47.46948242 61.46191406 C50.31366503 59.18069091 50.31366503 59.18069091 50.56762695 55.60839844 C50.54144287 54.2887207 50.51525879 52.96904297 50.48828125 51.609375 C50.47766914 50.55245453 50.47766914 50.55245453 50.46684265 49.47418213 C50.43893357 47.23169109 50.37621287 44.99173129 50.3125 42.75 C50.28741211 41.22659866 50.26459978 39.70315803 50.24414062 38.1796875 C50.18912213 34.45230751 50.10287804 30.72640094 50 27 C49.65219482 27.49927002 49.30438965 27.99854004 48.94604492 28.51293945 C47.36298159 30.78165407 45.77529716 33.04709621 44.1875 35.3125 C43.64029297 36.09818359 43.09308594 36.88386719 42.52929688 37.69335938 C41.99755859 38.45068359 41.46582031 39.20800781 40.91796875 39.98828125 C40.18743286 41.03302612 40.18743286 41.03302612 39.44213867 42.09887695 C36.70129472 45.71203961 36.70129472 45.71203961 35 47 C32.4557436 46.86032141 31.3403588 46.32206527 29.49194336 44.57299805 C29.02925049 43.97527588 28.56655762 43.37755371 28.08984375 42.76171875 C27.31737305 41.77848633 27.31737305 41.77848633 26.52929688 40.77539062 C26.00400391 40.08638672 25.47871094 39.39738281 24.9375 38.6875 C24.40833984 38.01009766 23.87917969 37.33269531 23.33398438 36.63476562 C20.85291329 33.45015368 18.41854659 30.23229649 16 27 C15.87620755 31.48395303 15.78557429 35.96699602 15.7253418 40.45214844 C15.70022897 41.9770643 15.66613117 43.50186015 15.62280273 45.02636719 C15.56199956 47.22100426 15.53376113 49.4140481 15.51171875 51.609375 C15.48553467 52.92905273 15.45935059 54.24873047 15.43237305 55.60839844 C15.68633497 59.18069091 15.68633497 59.18069091 18.53051758 61.46191406 C19.75291138 62.2232666 19.75291138 62.2232666 21 63 C20.67 64.32 20.34 65.64 20 67 C13.4 67 6.8 67 0 67 C-0.33 65.68 -0.66 64.36 -1 63 C-0.18869629 62.575979 0.62260742 62.15195801 1.45849609 61.71508789 C5.42768006 57.4748098 4.71635937 53.16749826 4.6640625 47.55859375 C4.66884613 46.43937027 4.67362976 45.32014679 4.67855835 44.16700745 C4.68195919 41.8024861 4.67274409 39.43791785 4.65185547 37.07348633 C4.6250703 33.44701801 4.65161299 29.82363815 4.68359375 26.19726562 C4.68029018 23.90103481 4.67388505 21.60480593 4.6640625 19.30859375 C4.67418365 18.22106308 4.68430481 17.13353241 4.69473267 16.01304626 C4.65146342 13.24592928 4.58622619 10.70470713 4 8 C1.66727834 5.68318241 1.66727834 5.68318241 -1 5 C-0.67 3.35 -0.34 1.7 0 0 Z " fill="#FEFFFE" transform="translate(506,91)"/>
<path d="M0 0 C8.91 0 17.82 0 27 0 C27.33 1.65 27.66 3.3 28 5 C26.78763672 5.47373047 26.78763672 5.47373047 25.55078125 5.95703125 C22.89600017 7.67378429 22.89600017 7.67378429 22.49365234 9.84130859 C22.28178268 12.13269709 22.20448888 14.38645019 22.1875 16.6875 C22.16236328 17.48478516 22.13722656 18.28207031 22.11132812 19.10351562 C22.05249685 21.0684802 22.02337596 23.03429391 22 25 C24.41696872 25.05411124 26.83271787 25.09372278 29.25 25.125 C30.27287109 25.15013672 30.27287109 25.15013672 31.31640625 25.17578125 C35.0608235 25.21213482 37.82352727 25.07944349 41 23 C41.33943158 14.78864985 41.33943158 14.78864985 39 7 C38.01 6.34 37.02 5.68 36 5 C36.33 3.35 36.66 1.7 37 0 C45.58 0 54.16 0 63 0 C63.495 2.475 63.495 2.475 64 5 C63.18869629 5.26103516 62.37739258 5.52207031 61.54150391 5.79101562 C58.8318871 7.70057922 58.8318871 7.70057922 58.51873779 10.22729492 C58.33487185 13.27560934 58.30759833 16.28988673 58.3359375 19.34375 C58.33115387 20.46438843 58.32637024 21.58502686 58.32144165 22.73962402 C58.31803754 25.11012169 58.32727544 27.48066597 58.34814453 29.85107422 C58.3749 33.48641304 58.34841096 37.11866385 58.31640625 40.75390625 C58.31971025 43.05469434 58.32611629 45.3554805 58.3359375 47.65625 C58.32581635 48.74691772 58.31569519 49.83758545 58.30526733 50.96130371 C58.34852729 53.73668529 58.41375487 56.2868412 59 59 C61.33212986 61.31946011 61.33212986 61.31946011 64 62 C63.67 63.65 63.34 65.3 63 67 C54.09 67 45.18 67 36 67 C36 65.35 36 63.7 36 62 C37.65 61.34 39.3 60.68 41 60 C41 51.75 41 43.5 41 35 C35.06 35 29.12 35 23 35 C22.67 43.25 22.34 51.5 22 60 C23.98 60.66 25.96 61.32 28 62 C27.67 63.65 27.34 65.3 27 67 C18.09 67 9.18 67 0 67 C-0.33 65.68 -0.66 64.36 -1 63 C-0.18869629 62.57525391 0.62260742 62.15050781 1.45849609 61.71289062 C5.42328555 57.48073497 4.71643114 53.19412039 4.6640625 47.59375 C4.66884613 46.47689819 4.67362976 45.36004639 4.67855835 44.20935059 C4.68195945 41.84902538 4.67274251 39.48865321 4.65185547 37.12841797 C4.6250957 33.5129302 4.65159914 29.90054731 4.68359375 26.28515625 C4.68028969 23.99218064 4.67388355 21.69920696 4.6640625 19.40625 C4.67418365 18.32388062 4.68430481 17.24151123 4.69473267 16.12634277 C4.73666678 10.10258562 4.73666678 10.10258562 1.45849609 5.28710938 C0.64719238 4.86236328 -0.16411133 4.43761719 -1 4 C-0.67 2.68 -0.34 1.36 0 0 Z " fill="#FEFFFE" transform="translate(371,91)"/>
<path d="M0 0 C0.78987305 0.00684814 1.57974609 0.01369629 2.39355469 0.02075195 C11.67123855 0.27403841 19.73299443 2.61016083 26.25 9.4375 C33.66792834 18.93839962 35.40305985 29.60553356 34.25 41.4375 C32.60614996 49.56868679 29.40652886 56.74649317 23.25 62.4375 C13.01802151 69.01182208 1.02346487 70.29751937 -10.80859375 67.7890625 C-18.86279199 64.84884036 -24.7616586 59.86613231 -28.6875 52.25 C-32.88489963 43.21491944 -33.27893819 31.91766291 -30.99609375 22.2421875 C-30.06238472 19.84749845 -29.02410449 17.66718286 -27.75 15.4375 C-27.1725 14.365 -26.595 13.2925 -26 12.1875 C-19.16878466 3.83823681 -10.65612073 -0.14188486 0 0 Z M-9.9375 13.5625 C-16.07918589 23.30448452 -16.14754612 35.24722969 -14.24609375 46.390625 C-12.77588574 51.33052391 -10.33087392 54.7648088 -6.75 58.4375 C-2.74660634 60.43919683 1.90834944 60.06629077 6.25 59.4375 C11.30509635 56.81465827 14.23170378 52.70749569 16.25 47.4375 C18.98862085 36.38658629 18.17969389 23.42362246 12.5625 13.4375 C5.45041569 7.28650817 -2.97868778 6.80251098 -9.9375 13.5625 Z " fill="#FEFFFE" transform="translate(469.75,90.5625)"/>
<path d="M0 0 C6.19298642 -0.09888089 12.38551332 -0.17147486 18.57910156 -0.21972656 C20.68595382 -0.23984126 22.79275025 -0.26713667 24.89941406 -0.30175781 C27.92787447 -0.35028168 30.95559678 -0.37297016 33.984375 -0.390625 C35.39707672 -0.42159271 35.39707672 -0.42159271 36.83831787 -0.45318604 C43.35796489 -0.45542283 43.35796489 -0.45542283 46.54003906 1.80175781 C48.52447095 4.78968836 49.36015022 7.48082622 50 11 C49.34 11.99 48.68 12.98 48 14 C45.07920919 13.53267347 43.60916468 12.72811456 41.125 11 C35.68133885 7.69791104 29.17372902 8.23518968 23 8 C23 12.95 23 17.9 23 23 C24.8975 23.0825 26.795 23.165 28.75 23.25 C34.41153846 23.49615385 34.41153846 23.49615385 37.390625 26.046875 C37.92171875 26.69140625 38.4528125 27.3359375 39 28 C37.25 32.875 37.25 32.875 35 34 C31.04 34 27.08 34 23 34 C23 41.92 23 49.84 23 58 C33.52292129 59.02174449 33.52292129 59.02174449 43.61328125 56.6640625 C45.59201878 54.84774965 45.59201878 54.84774965 48 52 C49.32 52 50.64 52 52 52 C52.55954909 57.37167125 51.75226735 60.77471436 48.76651001 65.30639648 C45.88166849 68.0721763 43.13384776 67.90885577 39.2676239 67.90637207 C38.2653627 67.86508179 37.2631015 67.8237915 36.23046875 67.78125 C34.67625969 67.76427063 34.67625969 67.76427063 33.09065247 67.74694824 C29.78770464 67.70223407 26.4891307 67.60187697 23.1875 67.5 C20.94602633 67.45986676 18.70448447 67.42336573 16.46289062 67.390625 C10.97377317 67.30251676 5.48719897 67.16873241 0 67 C0 65.35 0 63.7 0 62 C1.65 61.34 3.3 60.68 5 60 C4.95843765 52.6489177 4.88621718 45.29859909 4.79248047 37.94799805 C4.76422162 35.44644057 4.7430317 32.94479299 4.72900391 30.44311523 C4.70764304 26.85092875 4.66102593 23.25983136 4.609375 19.66796875 C4.60814636 18.54601608 4.60691772 17.42406342 4.60565186 16.26811218 C4.58593323 15.22725967 4.5662146 14.18640717 4.54589844 13.11401367 C4.53701599 12.19690109 4.52813354 11.27978851 4.51898193 10.33488464 C3.84067387 7.28319637 2.51666994 6.71250223 0 5 C-0.25 2.3125 -0.25 2.3125 0 0 Z " fill="#FEFFFE" transform="translate(583,91)"/>
<path d="M0 0 C0.88471985 -0.01606293 1.7694397 -0.03212585 2.68096924 -0.04867554 C6.74124523 -0.09302579 10.8013548 -0.13420878 14.86181641 -0.15722656 C17.0035286 -0.17377365 19.14518586 -0.20104706 21.28662109 -0.23925781 C24.37073489 -0.29403358 27.45355115 -0.31590386 30.53808594 -0.33056641 C31.49346252 -0.35323578 32.44883911 -0.37590515 33.4331665 -0.39926147 C38.07514227 -0.38451793 40.14436566 -0.33959595 43.9206543 2.57202148 C45.83000593 5.18608726 46.62833201 6.84340398 47.14746094 10.00537109 C47.28796875 10.79556641 47.42847656 11.58576172 47.57324219 12.39990234 C47.65960938 12.99158203 47.74597656 13.58326172 47.83496094 14.19287109 C45.85496094 15.18287109 45.85496094 15.18287109 43.83496094 16.19287109 C43.361875 15.77134766 42.88878906 15.34982422 42.40136719 14.91552734 C41.74007812 14.36767578 41.07878906 13.81982422 40.39746094 13.25537109 C39.44033203 12.43746094 39.44033203 12.43746094 38.46386719 11.60302734 C35.77229818 10.15925853 34.16429353 9.88911436 31.1706543 9.60473633 C30.35906357 9.52464828 29.54747284 9.44456024 28.71128845 9.36204529 C28.09210037 9.3062178 27.47291229 9.25039032 26.83496094 9.19287109 C26.85120909 16.25921041 26.90589861 23.32449641 26.98754883 30.39038086 C27.01077102 32.79493378 27.02513438 35.19958902 27.03051758 37.60424805 C27.03977594 41.05761803 27.08070068 44.50936909 27.12792969 47.96240234 C27.12399704 49.04060745 27.12006439 50.11881256 27.11601257 51.22969055 C27.1699848 53.9795623 27.24427498 56.50656185 27.83496094 59.19287109 C30.17124384 61.50309392 30.17124384 61.50309392 32.83496094 62.19287109 C32.50496094 63.84287109 32.17496094 65.49287109 31.83496094 67.19287109 C22.92496094 67.19287109 14.01496094 67.19287109 4.83496094 67.19287109 C4.50496094 65.87287109 4.17496094 64.55287109 3.83496094 63.19287109 C7.58496094 60.19287109 7.58496094 60.19287109 9.83496094 60.19287109 C9.50496094 43.36287109 9.17496094 26.53287109 8.83496094 9.19287109 C0.65301069 9.36962295 0.65301069 9.36962295 -2.21582031 11.63818359 C-2.6321875 12.19248047 -3.04855469 12.74677734 -3.47753906 13.31787109 C-4.36441406 14.26662109 -5.25128906 15.21537109 -6.16503906 16.19287109 C-8.33300781 15.87255859 -8.33300781 15.87255859 -10.16503906 15.19287109 C-10.90908136 9.24053271 -8.53469075 5.82199914 -5.16503906 1.19287109 C-3.6195679 -0.35260007 -2.15223617 0.03538932 0 0 Z " fill="#FEFFFE" transform="translate(321.1650390625,90.80712890625)"/>
</svg>
